<svg id="Layer_1" data-name="Layer 1" xmlns="http://www.w3.org/2000/svg" viewBox="0 0 574.77 216.42"><defs><style>.cls-1,.cls-3{stroke:#000;stroke-miterlimit:10;}.cls-1{stroke-width:5px;}.cls-2{fill:#662483;}.cls-3{stroke-width:1.5px;}</style></defs><path class="cls-1" d="M330.81,988.59v-146h5.38v79.07l-1.64,15.54L336,952.79v35.8Zm41.72.49a40,40,0,0,1-20.53-5.3,37.77,37.77,0,0,1-14.43-15.07,46.51,46.51,0,0,1-5.3-22.5q0-12.87,5.3-22.49a38.62,38.62,0,0,1,14.43-15,39.6,39.6,0,0,1,20.53-5.38A40.49,40.49,0,0,1,408.47,924q5.46,9.53,5.46,22.24a44.55,44.55,0,0,1-5.46,22.25,39.71,39.71,0,0,1-14.83,15.16A41.18,41.18,0,0,1,372.53,989.08Zm-.16-4.89a36,36,0,0,0,18.5-4.81,34.26,34.26,0,0,0,12.95-13.44,43.66,43.66,0,0,0,0-39.53,33.9,33.9,0,0,0-12.95-13.28,38.7,38.7,0,0,0-37.08,0,34.07,34.07,0,0,0-12.88,13.28,43.74,43.74,0,0,0,0,39.53,34.44,34.44,0,0,0,12.88,13.44A35.8,35.8,0,0,0,372.37,984.19Z" transform="translate(-328.31 -836.38)"/><path class="cls-1" d="M473.74,989.08a44.16,44.16,0,0,1-22.17-5.46,39.62,39.62,0,0,1-15.15-15.24,44.09,44.09,0,0,1-5.54-22.17A46.37,46.37,0,0,1,436,924.05a38.93,38.93,0,0,1,14.18-15.16,38.38,38.38,0,0,1,20.45-5.54,38.87,38.87,0,0,1,20.29,5.38,37.71,37.71,0,0,1,14.18,14.91,45.46,45.46,0,0,1,5.14,21.92V947H434.46v-4.4h72.86L506,944.24a.47.47,0,0,1-.83-.29,39.31,39.31,0,0,0-4.46-17.7,33.84,33.84,0,0,0-12.31-13.2,35.21,35.21,0,0,0-35.53,0,33.84,33.84,0,0,0-12.31,13.2,40,40,0,0,0-4.48,19.15v1A38.89,38.89,0,0,0,441,966a35.09,35.09,0,0,0,13.37,13.36,38.55,38.55,0,0,0,19.39,4.81,40.52,40.52,0,0,0,15.73-3.09,29.79,29.79,0,0,0,12.31-9.46l3.42,3.59a36.56,36.56,0,0,1-13.94,10.34A44.18,44.18,0,0,1,473.74,989.08Z" transform="translate(-328.31 -836.38)"/><path class="cls-1" d="M649,989.08a41.48,41.48,0,0,1-21.27-5.46,39.58,39.58,0,0,1-14.83-15.24,44.67,44.67,0,0,1-5.46-22.17,44.1,44.1,0,0,1,5.46-22.16,40.57,40.57,0,0,1,14.83-15.16A41,41,0,0,1,649,903.35a41.46,41.46,0,0,1,21.35,5.54,39.86,39.86,0,0,1,14.84,15.16,44.69,44.69,0,0,1,5.38,22.16,45.27,45.27,0,0,1-5.38,22.17,38.92,38.92,0,0,1-14.84,15.24A41.9,41.9,0,0,1,649,989.08Zm0-4.89a36.34,36.34,0,0,0,18.67-4.81,33.73,33.73,0,0,0,12.87-13.44,44.33,44.33,0,0,0,0-39.53,33.37,33.37,0,0,0-12.87-13.28A36.88,36.88,0,0,0,649,908.4a36,36,0,0,0-18.41,4.73,34.55,34.55,0,0,0-13,13.28,43,43,0,0,0,0,39.53,34.91,34.91,0,0,0,13,13.44A35.49,35.49,0,0,0,649,984.19Z" transform="translate(-328.31 -836.38)"/><path class="cls-1" d="M757,903.35a37.66,37.66,0,0,1,18,4.07,28.61,28.61,0,0,1,11.81,12q4.23,7.9,4.23,19.48v49.71H785.7V939.2q0-15.15-7.66-23t-21.52-7.82a37.21,37.21,0,0,0-18.25,4.24,28.63,28.63,0,0,0-11.74,12.06A39.08,39.08,0,0,0,722.46,943v45.63h-5.38V904h5.22v23.8l-.65-1.47a34.09,34.09,0,0,1,13-16.78Q743.65,903.34,757,903.35Z" transform="translate(-328.31 -836.38)"/><path class="cls-1" d="M858.06,989.08a41.14,41.14,0,0,1-21.1-5.46,39.71,39.71,0,0,1-14.83-15.16,44.45,44.45,0,0,1-5.46-22.25q0-12.71,5.46-22.24a40.49,40.49,0,0,1,35.93-20.62,39.66,39.66,0,0,1,20.54,5.38,38.76,38.76,0,0,1,14.43,15q5.28,9.63,5.3,22.49a46.63,46.63,0,0,1-5.3,22.5,37.91,37.91,0,0,1-14.43,15.07A40.09,40.09,0,0,1,858.06,989.08Zm.17-4.89a35.85,35.85,0,0,0,18.58-4.81,34.41,34.41,0,0,0,12.87-13.44,43.66,43.66,0,0,0,0-39.53,34,34,0,0,0-12.87-13.28,38.54,38.54,0,0,0-37,0,34.62,34.62,0,0,0-13,13.28,43.09,43.09,0,0,0,0,39.53,35,35,0,0,0,13,13.44A35.53,35.53,0,0,0,858.23,984.19Zm36.34,4.4v-35.8L896,937.25l-1.63-15.54V842.64h5.38v146Z" transform="translate(-328.31 -836.38)"/><path class="cls-2" d="M522.85,908.37c.67-.87,1.49-1.6,2.18-2.45,2.16-2.63,2.85-6.23,5-8.88a5.39,5.39,0,0,1,2.75-2,2.83,2.83,0,0,1,3.06,1,4.77,4.77,0,0,1,.2,3.46,58.33,58.33,0,0,0-1,8.85,1.66,1.66,0,0,0,.07.7c.24.62,1,.76,1.7.78a.93.93,0,0,0,.62-.07c.19-.1.3-.29.47-.43A2,2,0,0,1,539,909c1.23-.1,2.45-.25,3.67-.45,1.79-.28,3.57-.65,5.36-1l3.79-.79c1.77-.37,3.66-.66,5.11-1.73a1.74,1.74,0,0,0,.58-1c1-3.62.9-7.44,1.42-11.15a61.49,61.49,0,0,1,1.81-7.93c1.56-5.61,3.89-11,5-16.71a53,53,0,0,1,1.46-5.57,2.58,2.58,0,0,1,.9-1.47,5.66,5.66,0,0,0,.82-.4,1.94,1.94,0,0,0,.48-.85c.68-2,1.38-4,2.07-5.94a34.68,34.68,0,0,0,1.2-4,2.88,2.88,0,0,0,.1-1.2c-.08-.39-.31-.74-.41-1.13a4.28,4.28,0,0,1,.57-2.87c1.17-2.49,2.81-5,3.4-7.67.06-.25.12-.5.17-.76a4.77,4.77,0,0,1,2,.46c4.92,2.09,8.26,6.69,12.54,9.91a28.72,28.72,0,0,1,2.39,1.85,14.2,14.2,0,0,1,3.71,6.58c.14.48-.08.72-.42,1.08-.12.13-.27.22-.38.35a2.36,2.36,0,0,0-.36,1,2.41,2.41,0,0,1-1.72,2,2.36,2.36,0,0,1-1-.11,23.74,23.74,0,0,1-3.49-1.59,13.05,13.05,0,0,0-7.49-1.06,3.6,3.6,0,0,0-1.55.51,3.8,3.8,0,0,0-1.13,1.29,31.7,31.7,0,0,0-2.12,4.39,4.81,4.81,0,0,0-.39,1.18.72.72,0,0,0,0,.48.78.78,0,0,0,.31.29,14.91,14.91,0,0,0,2.66,1.38c.54.22,1.16.47,1.34,1a1.8,1.8,0,0,1,0,.73,30.47,30.47,0,0,1-.5,3.43c0,.23-.13.51-.36.59s-.43-.05-.61,0a.65.65,0,0,0-.27.6c0,.43-.15.71-.17,1.14a25.45,25.45,0,0,1-1.83,8.7c-1.16,2.89-2.84,5.56-3.67,8.55a3.85,3.85,0,0,0-.2,1.25,3.64,3.64,0,0,0,.42,1.57,12.4,12.4,0,0,0,1.61,2.33,11.82,11.82,0,0,1,1.1,2.26,1.57,1.57,0,0,1,.24.82,1.41,1.41,0,0,1-.28.74,7.57,7.57,0,0,1-1.34,1.64,2.21,2.21,0,0,0-.82,1.12,2.66,2.66,0,0,0,.33,1.29,3.81,3.81,0,0,1-.11,3,5.44,5.44,0,0,0-.52,1.19c-.1.41,0,.86-.14,1.28a5.68,5.68,0,0,1-1.08,1.53,1.57,1.57,0,0,0-.25.48,2,2,0,0,0-.07.6,19.25,19.25,0,0,1-1.66,7.08,44.83,44.83,0,0,0,1.25,5.39,8,8,0,0,1,.53,3.22,13.92,13.92,0,0,0-.37,2,5.41,5.41,0,0,0,.31,1.54c.38,1.35.53,2.75.84,4.12a11.1,11.1,0,0,0,1.49,3.84c1.5,2.17,1.44,5.07.69,7.57a5.82,5.82,0,0,0-.38,1.87.57.57,0,0,0,.15.4.59.59,0,0,0,.6,0c.34-.1.66-.23,1-.33a.53.53,0,0,1,.27-.06c.33,0,.42.44.43.76a4.92,4.92,0,0,0,.77,3c.57.7,1.5,1,2.15,1.66.91.9,1.5,2.27,2.4,3.18l3.1,3.15a5,5,0,0,1,1.11,1.44,7.06,7.06,0,0,1,.38,2.38c.25,2.6,1.71,5,2,7.56a4.37,4.37,0,0,0,.86,2.64,1.28,1.28,0,0,1,1.34-1,2.58,2.58,0,0,1,1.64.81c.82.77,1.4,1.77,2.2,2.54,1.16,1.09,2.72,1.68,3.93,2.73a13.66,13.66,0,0,1,1.78,2.08c1.06,1.44,2.2,3,3.26,4.47l-.55,5.68a33.5,33.5,0,0,1-.59,4.12,20.79,20.79,0,0,1-1,2.89,21.56,21.56,0,0,1-1.62,3.13,18.41,18.41,0,0,0-1.88,3.31,11.63,11.63,0,0,0-.71,3.72,12.07,12.07,0,0,1-.41,2.81,6.31,6.31,0,0,1-1.06,2.36c-1.22,1.56-3.29,2.09-5.21,2.52a1.19,1.19,0,0,1-.59.05,5.79,5.79,0,0,1-.57-.25,2.36,2.36,0,0,0-1.41.23,6.1,6.1,0,0,1-3.56-.37,1.88,1.88,0,0,1-.56-.25,1.84,1.84,0,0,1-.33-.35c-1.61-2-3.21-4-4.82-6,0,.27-.37.42-.63.33a1.55,1.55,0,0,1-.6-.54,10.13,10.13,0,0,0-1.69-1.71c.14.56-.4,1.09-1,1.25s-1.17.1-1.73.23a5.09,5.09,0,0,0-1.95,1.2l-3.86,3.29a5.79,5.79,0,0,1-1.87,1.23,2,2,0,0,1-2.09-.42c-.63,2.91-2.4,5.46-3.09,8.36a23.19,23.19,0,0,0-.46,3.81c-.07,1.16-.48,2.31-.45,3.46a16.68,16.68,0,0,1-.91,6.59c-.29.71-.65,1.39-1,2.08a24.22,24.22,0,0,0-1.27,4.76c-.16.87-.33,1.72-.41,2.59a3.13,3.13,0,0,0,0,1.22,2.78,2.78,0,0,0,1.93,1.93,5.5,5.5,0,0,0,2.82,0,3.18,3.18,0,0,0,.37,1.07.88.88,0,0,1-.13,1c-.46.33-1-.18-1.56-.35a2.25,2.25,0,0,0-1.84.5,4.85,4.85,0,0,1-1.71,1,5.14,5.14,0,0,1-1.56-.12c-1.4-.22-2.83-.06-4.22-.26a4,4,0,0,1-3.33-2.26c-.13-.36-.2-.79-.55-1s-1,.13-1.4-.21c.05-.55.64-.83,1.14-1a5.56,5.56,0,0,1,3-.34c1.62-5.29.89-11,1.6-16.45,1-7.41,4.56-14.54,3.74-22-.13-1.24-.39-2.47-.43-3.72a20.63,20.63,0,0,1,.15-2.48,40.8,40.8,0,0,1,1.87-7.87,11.42,11.42,0,0,0,.43-5.06,1.29,1.29,0,0,1-1.82-.13,3.4,3.4,0,0,1-.74-1.89c-.85-5.41.29-10.92,1.44-16.28a17.85,17.85,0,0,0,.51-3.46,12.4,12.4,0,0,0-.94-4.45,21.1,21.1,0,0,0-3-5.27l-2.19.63a1.72,1.72,0,0,1-1.07.08,1.82,1.82,0,0,1-.72-.71,47.28,47.28,0,0,1-4.48-7.64,24.24,24.24,0,0,1,1.22-21.34,56.51,56.51,0,0,0,3.38-5.75,41.54,41.54,0,0,1,2.3-5.19c-1.57.28-3.15-.13-4.74-.14-1.85,0-3.66.56-5.5.57A9.17,9.17,0,0,1,536,917.4a6.72,6.72,0,0,0-1.33-.86,4.75,4.75,0,0,0-1.07-.24,15,15,0,0,0-4.68.23c-.18,0-.4.13-.39.31s.26.38.15.53a.3.3,0,0,1-.19.08,5.26,5.26,0,0,1-3.62-.59,12.49,12.49,0,0,0-2-1.18,4.67,4.67,0,0,1-1.1-.4A2.35,2.35,0,0,1,521,913,8.84,8.84,0,0,1,522.85,908.37Zm65.29,86.57a3.74,3.74,0,0,0,1.24.95,1.92,1.92,0,0,1,.47-.51,8,8,0,0,1,2.49,2.09c.28.35.53.83.3,1.2a1.53,1.53,0,0,0-.19.31.52.52,0,0,0,.12.36,6.93,6.93,0,0,0,2.11,2c.31-3.3.63-6.58.94-9.87,0-.42,0-2.71-1-2.3-.32.14-.48,1.23-.63,1.54a4.71,4.71,0,0,1-1.17,1.7,3.41,3.41,0,0,1-2.51.8c-.79-.07-1.77-.36-2.26.26A1.2,1.2,0,0,0,588.14,994.94Z" transform="translate(-328.31 -836.38)"/><path class="cls-3" d="M642.27,1036.55v-20.79h8a11.85,11.85,0,0,1,5.79,1.35,10,10,0,0,1,3.85,3.68,11.1,11.1,0,0,1,0,10.72,10,10,0,0,1-3.85,3.69,11.85,11.85,0,0,1-5.79,1.35Zm1-.92h7a11.13,11.13,0,0,0,5.33-1.22,8.65,8.65,0,0,0,3.5-3.36,10.3,10.3,0,0,0,0-9.8,8.7,8.7,0,0,0-3.5-3.35,11,11,0,0,0-5.33-1.22h-7Z" transform="translate(-328.31 -836.38)"/><path class="cls-3" d="M665.88,1036.55l9.62-20.79h1l9.63,20.79H685l-9.24-20.11h.45L667,1036.55Zm3.33-6.09.38-.86H682.3l.39.86Z" transform="translate(-328.31 -836.38)"/><path class="cls-3" d="M693.11,1036.55v-20.79H694l15.26,19.6h-.5v-19.6h1v20.79h-.83l-15.27-19.61h.5v19.61Z" transform="translate(-328.31 -836.38)"/><path class="cls-3" d="M728.9,1036.67a11.34,11.34,0,0,1-4.24-.79,10.39,10.39,0,0,1-3.42-2.21,10.16,10.16,0,0,1-2.26-3.35,11.27,11.27,0,0,1,0-8.34,10.12,10.12,0,0,1,2.26-3.34,10.23,10.23,0,0,1,3.42-2.21,11.15,11.15,0,0,1,4.24-.79,11.59,11.59,0,0,1,4,.68,8.64,8.64,0,0,1,3.24,2.08l-.62.65a8.35,8.35,0,0,0-3-1.91,10.44,10.44,0,0,0-3.52-.58,10,10,0,0,0-3.86.73,9.32,9.32,0,0,0-3.1,2,9.21,9.21,0,0,0-2.05,3,10.18,10.18,0,0,0,0,7.57,9.17,9.17,0,0,0,2.05,3,9.5,9.5,0,0,0,3.1,2,10.24,10.24,0,0,0,3.86.73,10.69,10.69,0,0,0,3.52-.58,8.34,8.34,0,0,0,3-2l.62.65a8.81,8.81,0,0,1-3.24,2.1A11.37,11.37,0,0,1,728.9,1036.67Z" transform="translate(-328.31 -836.38)"/><path class="cls-3" d="M745.45,1035.63h13v.92h-14v-20.79h13.63v.92H745.45Zm-.18-10.1h11.46v.92H745.27Z" transform="translate(-328.31 -836.38)"/><path class="cls-3" d="M783,1036.67a11.53,11.53,0,0,1-4.32-.82,7.86,7.86,0,0,1-3.11-2.06l.54-.72A8,8,0,0,0,779,1035a10.14,10.14,0,0,0,4,.78,9.06,9.06,0,0,0,3.56-.59,4.56,4.56,0,0,0,2.07-1.59,3.91,3.91,0,0,0,.67-2.21,3.47,3.47,0,0,0-.72-2.29,4.84,4.84,0,0,0-1.88-1.36,15.37,15.37,0,0,0-2.56-.84c-.92-.21-1.85-.45-2.79-.69a14.23,14.23,0,0,1-2.58-1,4.73,4.73,0,0,1-1.87-1.61,4.59,4.59,0,0,1-.7-2.66,5,5,0,0,1,.74-2.61,5.31,5.31,0,0,1,2.32-2,9.24,9.24,0,0,1,4-.76,10.93,10.93,0,0,1,3.34.52,9,9,0,0,1,2.8,1.38l-.44.8a8.91,8.91,0,0,0-2.76-1.37,10.55,10.55,0,0,0-2.91-.44,8.51,8.51,0,0,0-3.46.61,4.45,4.45,0,0,0-2,1.62,4,4,0,0,0-.65,2.22,3.55,3.55,0,0,0,.71,2.32,5,5,0,0,0,1.89,1.37,16.14,16.14,0,0,0,2.57.83c.93.22,1.86.45,2.79.7a13,13,0,0,1,2.57,1,5.11,5.11,0,0,1,1.87,1.59,4.47,4.47,0,0,1,.7,2.6,4.89,4.89,0,0,1-.76,2.61,5.3,5.3,0,0,1-2.38,2A9.8,9.8,0,0,1,783,1036.67Z" transform="translate(-328.31 -836.38)"/><path class="cls-3" d="M802.29,1036.55v-19.87h-7.63v-.92h16.25v.92h-7.64v19.87Z" transform="translate(-328.31 -836.38)"/><path class="cls-3" d="M825.34,1036.67a8,8,0,0,1-6-2.23c-1.46-1.49-2.19-3.7-2.19-6.65v-12h1v12c0,2.69.63,4.69,1.87,6a8.06,8.06,0,0,0,10.58,0q1.88-2,1.87-6v-12h1v12c0,3-.73,5.16-2.18,6.65A8,8,0,0,1,825.34,1036.67Z" transform="translate(-328.31 -836.38)"/><path class="cls-3" d="M843.87,1036.55v-20.79h8a11.85,11.85,0,0,1,5.79,1.35,9.89,9.89,0,0,1,3.85,3.68,11.1,11.1,0,0,1,0,10.72,9.84,9.84,0,0,1-3.85,3.69,11.85,11.85,0,0,1-5.79,1.35Zm1-.92h7a11.13,11.13,0,0,0,5.33-1.22,8.62,8.62,0,0,0,3.51-3.36,10.38,10.38,0,0,0,0-9.8,8.66,8.66,0,0,0-3.51-3.35,11,11,0,0,0-5.33-1.22h-7Z" transform="translate(-328.31 -836.38)"/><path class="cls-3" d="M871.38,1036.55v-20.79h1v20.79Z" transform="translate(-328.31 -836.38)"/><path class="cls-3" d="M891.57,1036.67a11.34,11.34,0,0,1-4.24-.79,10.39,10.39,0,0,1-3.42-2.21,10.16,10.16,0,0,1-2.26-3.35,11.27,11.27,0,0,1,0-8.34,10.12,10.12,0,0,1,2.26-3.34,10.23,10.23,0,0,1,3.42-2.21,11.15,11.15,0,0,1,4.24-.79,11.28,11.28,0,0,1,4.28.79,10,10,0,0,1,3.4,2.21,10.43,10.43,0,0,1,2.26,3.34,11,11,0,0,1,0,8.34,10.48,10.48,0,0,1-2.26,3.35,10.2,10.2,0,0,1-3.4,2.21A11.48,11.48,0,0,1,891.57,1036.67Zm0-.92a10.25,10.25,0,0,0,3.87-.72,9.27,9.27,0,0,0,5.15-5.06,10.33,10.33,0,0,0,0-7.63,9.25,9.25,0,0,0-5.15-5.07,10.79,10.79,0,0,0-7.7,0,9.25,9.25,0,0,0-5.15,5.07,10.33,10.33,0,0,0,0,7.63,9.27,9.27,0,0,0,5.15,5.06A10.15,10.15,0,0,0,891.57,1035.75Z" transform="translate(-328.31 -836.38)"/></svg>