<svg id="Layer_1" data-name="Layer 1" xmlns="http://www.w3.org/2000/svg" viewBox="0 0 574.77 197.28"><defs><style>.cls-1,.cls-3{stroke:#000;stroke-miterlimit:10;}.cls-1{stroke-width:5px;}.cls-2{fill:#662483;}.cls-3{stroke-width:1.5px;}</style></defs><path class="cls-1" d="M330.81,988.59v-146h5.38v79.07l-1.64,15.54L336,952.79v35.8Zm41.72.49a40,40,0,0,1-20.53-5.3,37.77,37.77,0,0,1-14.43-15.07,46.51,46.51,0,0,1-5.3-22.5q0-12.87,5.3-22.49a38.62,38.62,0,0,1,14.43-15,39.6,39.6,0,0,1,20.53-5.38A40.49,40.49,0,0,1,408.47,924q5.46,9.53,5.46,22.24a44.55,44.55,0,0,1-5.46,22.25,39.71,39.71,0,0,1-14.83,15.16A41.18,41.18,0,0,1,372.53,989.08Zm-.16-4.89a36,36,0,0,0,18.5-4.81,34.26,34.26,0,0,0,12.95-13.44,43.66,43.66,0,0,0,0-39.53,33.9,33.9,0,0,0-12.95-13.28,38.7,38.7,0,0,0-37.08,0,34.07,34.07,0,0,0-12.88,13.28,43.74,43.74,0,0,0,0,39.53,34.44,34.44,0,0,0,12.88,13.44A35.8,35.8,0,0,0,372.37,984.19Z" transform="translate(-328.31 -840.14)"/><path class="cls-1" d="M473.74,989.08a44.16,44.16,0,0,1-22.17-5.46,39.62,39.62,0,0,1-15.15-15.24,44.09,44.09,0,0,1-5.54-22.17A46.37,46.37,0,0,1,436,924.05a38.93,38.93,0,0,1,14.18-15.16,38.38,38.38,0,0,1,20.45-5.54,38.87,38.87,0,0,1,20.29,5.38,37.71,37.71,0,0,1,14.18,14.91,45.46,45.46,0,0,1,5.14,21.92V947H434.46v-4.4h72.86L506,944.24a.47.47,0,0,1-.83-.29,39.31,39.31,0,0,0-4.46-17.7,33.84,33.84,0,0,0-12.31-13.2,35.21,35.21,0,0,0-35.53,0,33.84,33.84,0,0,0-12.31,13.2,40,40,0,0,0-4.48,19.15v1A38.89,38.89,0,0,0,441,966a35.09,35.09,0,0,0,13.37,13.36,38.55,38.55,0,0,0,19.39,4.81,40.52,40.52,0,0,0,15.73-3.09,29.79,29.79,0,0,0,12.31-9.46l3.42,3.59a36.56,36.56,0,0,1-13.94,10.34A44.18,44.18,0,0,1,473.74,989.08Z" transform="translate(-328.31 -840.14)"/><path class="cls-1" d="M649,989.08a41.48,41.48,0,0,1-21.27-5.46,39.58,39.58,0,0,1-14.83-15.24,44.67,44.67,0,0,1-5.46-22.17,44.1,44.1,0,0,1,5.46-22.16,40.57,40.57,0,0,1,14.83-15.16A41,41,0,0,1,649,903.35a41.46,41.46,0,0,1,21.35,5.54,39.86,39.86,0,0,1,14.84,15.16,44.69,44.69,0,0,1,5.38,22.16,45.27,45.27,0,0,1-5.38,22.17,38.92,38.92,0,0,1-14.84,15.24A41.9,41.9,0,0,1,649,989.08Zm0-4.89a36.34,36.34,0,0,0,18.67-4.81,33.73,33.73,0,0,0,12.87-13.44,44.33,44.33,0,0,0,0-39.53,33.37,33.37,0,0,0-12.87-13.28A36.88,36.88,0,0,0,649,908.4a36,36,0,0,0-18.41,4.73,34.55,34.55,0,0,0-13,13.28,43,43,0,0,0,0,39.53,34.91,34.91,0,0,0,13,13.44A35.49,35.49,0,0,0,649,984.19Z" transform="translate(-328.31 -840.14)"/><path class="cls-1" d="M757,903.35a37.66,37.66,0,0,1,18,4.07,28.61,28.61,0,0,1,11.81,12q4.23,7.9,4.23,19.48v49.71H785.7V939.2q0-15.15-7.66-23t-21.52-7.82a37.21,37.21,0,0,0-18.25,4.24,28.63,28.63,0,0,0-11.74,12.06A39.08,39.08,0,0,0,722.46,943v45.63h-5.38V904h5.22v23.8l-.65-1.47a34.09,34.09,0,0,1,13-16.78Q743.65,903.34,757,903.35Z" transform="translate(-328.31 -840.14)"/><path class="cls-1" d="M858.06,989.08a41.14,41.14,0,0,1-21.1-5.46,39.71,39.71,0,0,1-14.83-15.16,44.45,44.45,0,0,1-5.46-22.25q0-12.71,5.46-22.24a40.49,40.49,0,0,1,35.93-20.62,39.66,39.66,0,0,1,20.54,5.38,38.76,38.76,0,0,1,14.43,15q5.28,9.63,5.3,22.49a46.63,46.63,0,0,1-5.3,22.5,37.91,37.91,0,0,1-14.43,15.07A40.09,40.09,0,0,1,858.06,989.08Zm.17-4.89a35.85,35.85,0,0,0,18.58-4.81,34.41,34.41,0,0,0,12.87-13.44,43.66,43.66,0,0,0,0-39.53,34,34,0,0,0-12.87-13.28,38.54,38.54,0,0,0-37,0,34.62,34.62,0,0,0-13,13.28,43.09,43.09,0,0,0,0,39.53,35,35,0,0,0,13,13.44A35.53,35.53,0,0,0,858.23,984.19Zm36.34,4.4v-35.8L896,937.25l-1.63-15.54V842.64h5.38v146Z" transform="translate(-328.31 -840.14)"/><path class="cls-2" d="M568.18,865.25c-.12.4-.25.8-.4,1.18-.74,2-2.48,1.08-3.81,2.58a14.41,14.41,0,0,0-2.5,4.22,9.19,9.19,0,0,0-.62,2.58,13.94,13.94,0,0,0-2.73-4.22,26.22,26.22,0,0,0-6.88-5c-.83-.44-1.73-.93-2.68-1.38a21.32,21.32,0,0,0-2.69-.71,25.58,25.58,0,0,1-4.92-.93h0a10.9,10.9,0,0,0-1.64,1.88l-.13-.07a16.83,16.83,0,0,1-1.93-1l-.05,0a5.51,5.51,0,0,0-1.8-3.49c-.42-.52-.87-1-1.33-1.53-1.22-1.3-1.83-2.16-3.67-2.21-1.69-.06-4,1-5.74,1.87-2.31.56-5,1.49-5.11,4.1,0,1.3,1.33,2.24,2.23,2.83.73.48,1.46,1.67,2.31,1.87a4.54,4.54,0,0,0-.82,1c-.76,1.33,1.45,2,2.24,1.82,1-.23,2.71-1.64,3.84-1.27a.43.43,0,0,1,.29.15l0,0a4.77,4.77,0,0,0,2.76.93,6.41,6.41,0,0,0,2.23-.7.49.49,0,0,1,.53,0,7.13,7.13,0,0,0,1.43,1l.23.09c-.23.75-.44-3.86-.63-3.13-.32,1.2-2,6.21.32,6.45a10.22,10.22,0,0,0,3.27,1.19,9.33,9.33,0,0,0,3.44.38c2.42.29,6.2,8.15,8.64,7.66-.19.61.87-2.11,0-1.31-.35.3-.48,1.27-.28,1l.15-.22a13.62,13.62,0,0,0,.14,3.54c.22,1.56.43,3.65,1.43,5A26.08,26.08,0,0,0,545.5,900a12.5,12.5,0,0,0-1.4,4.09,3.82,3.82,0,0,0-1.21.62c-1.6-1.62-3.12-4.68-5.4-5.28a.9.9,0,0,0-.52,0c-2.18-3.74-5.67-7-8.52-10.14-3.71-4.08-7.64-8-11.49-11.93-7.82-8-17.1-14.08-26.44-20a.24.24,0,0,0-.2,0,.45.45,0,0,0-.1-.09c-.25-.2-.53.06-.61.3-.25.75-.8,1.27-1.06,2.08h0c-.71-.69-1.51-1.29-2.29-1.92-.2-.16-2.18-1.21-2.15-1.16l0,0c-.14-.28-.29-.57-.45-.86-1.63-2.86-5.18-3-7.72-4.53s-4.33-4.22-7.15-5.49a8.62,8.62,0,0,0-3.13-.68,8.83,8.83,0,0,0-1.15-.27,21.56,21.56,0,0,1-4-1.32,4,4,0,0,0-4,.46,1.27,1.27,0,0,0-.47,1.39,1.63,1.63,0,0,0-1.37,2.43,1.67,1.67,0,0,0-1.16,2.08,2.17,2.17,0,0,0,.26.53,2.87,2.87,0,0,0-.76.3,1.78,1.78,0,0,0-.74,2.15c-1.32.77-.67,2.61.58,3.73a4.6,4.6,0,0,0,3.68.91,3.6,3.6,0,0,0,1.39-.48,2.59,2.59,0,0,1,1.79-.52l-.05.06c4.15,1.6,8.31,3.15,12.38,5a32.71,32.71,0,0,0,7.16,2.88,23.79,23.79,0,0,0,3.42,2.64c.77.6,1.59,1.12,2.38,1.69a5.25,5.25,0,0,0,1.29.92.47.47,0,0,0,.16,0,34.1,34.1,0,0,0-.32,3.83c0,1.59.1,3.19.21,4.78.09,1.21-.14,3.39.33,4.48.86,2,3.38,3.31,5.1,4.45,5.9,3.92,11.15,8.91,16.81,13.19l3,2.28a.36.36,0,0,0,0,.19c.19,1.09,0,3,.69,4s2,1.41,3.11,2a70.16,70.16,0,0,1,10.84,7.29,78.11,78.11,0,0,1,12.24,11.8,28.69,28.69,0,0,1,6.54,11c.13.32.27.65.4,1a.25.25,0,0,0,0,.17c1,3.27,1.85,6.6,2.64,10a159.6,159.6,0,0,1,.57,32.49,151,151,0,0,1-2.62,16.9c-.31,1.6.77,2.7,1.44,4.1a12.07,12.07,0,0,0,.62,1.09.09.09,0,0,0,0,.09l0,0c-.31.18-.83,1.71-.95,2-.41.85-.78,1.73-1.13,2.61a31,31,0,0,1-2,5,.75.75,0,0,0-.11.29l-.55.72a80.8,80.8,0,0,0-7.09,11.47l-.35.19a6.36,6.36,0,0,0-2.35,2.14,2.58,2.58,0,0,0-.4,0,4.53,4.53,0,0,0-1.65.39,2.81,2.81,0,0,0-1.81,2.71c0,3,3.23,2.62,5.28,1.63a2.36,2.36,0,0,0,.18.55,1.73,1.73,0,0,0,2,.6,3.65,3.65,0,0,0,1.16-.63h0c.47,1.09,1.89,1,2.8.46a1.5,1.5,0,0,0,2.18.3h0a1.41,1.41,0,0,0,1.28.35c3.11-.86,4.11-4.55,4.51-7.55,1.4-2.53,1.52-6.33,2.17-9,0,0,0-.11,0-.16l.08-.08c.73-1,1.85-1.81,2.19-3,.4-1.4-.79-2.71-1.33-3.9,0-.38.1-.77.16-1.12s.27-.89.34-1.34a1.66,1.66,0,0,0,.91-.37c2.6-2.11,4.18-6.17,5.55-9.14,3.19-6.94,6.6-14.5,7.72-22.24a31.57,31.57,0,0,0,1.16-5.08,2.54,2.54,0,0,0-.61-2.12c-1-1,2.39-3.73,3-4.39a2.63,2.63,0,0,0,.45-.75s0,0,0,0c.19-1.47-.76-2.56-1.09-3.88h0v0c0-.1,0-.21-.06-.31-.17-1.1.59-2.23,1.28-3.19a137,137,0,0,0,5.52-18.22,2.07,2.07,0,0,0,1.44-.25,6.51,6.51,0,0,0,.44,1,2,2,0,0,0,2.94.7,3.39,3.39,0,0,0,.79.72c1.55,1,3.52-.46,4.31-1.82s1.37-3.21-.52-3.91h0a8.33,8.33,0,0,0,1.26-2.17,8,8,0,0,0,.75-2.73,7,7,0,0,0,0-.79c1.6.8,3.38,1.35,4.66.69l.07,0c.61.06,1.16-.53,1.67-1.31,3.51-4,6.87-8.66,8.6-13.76.81-2.39-.14-3.61-1.16-5.73a45.64,45.64,0,0,0-4.4-7.41c-2.35-3.18-5.73-4.56-9.32-6.54a25,25,0,0,0,3.51-.51c.87-.2,1.72-.45,2.58-.74a24.71,24.71,0,0,0,10.69-10.49c3.11-6,1.17-16.17-2.59-21.85-6.78-10.27-24.68-15.41-34.07,2.77" transform="translate(-328.31 -840.14)"/><path class="cls-3" d="M642.27,1036.55v-20.79h8a11.85,11.85,0,0,1,5.79,1.35,10,10,0,0,1,3.85,3.68,11.1,11.1,0,0,1,0,10.72,10,10,0,0,1-3.85,3.69,11.85,11.85,0,0,1-5.79,1.35Zm1-.92h7a11.13,11.13,0,0,0,5.33-1.22,8.65,8.65,0,0,0,3.5-3.36,10.3,10.3,0,0,0,0-9.8,8.7,8.7,0,0,0-3.5-3.35,11,11,0,0,0-5.33-1.22h-7Z" transform="translate(-328.31 -840.14)"/><path class="cls-3" d="M665.88,1036.55l9.62-20.79h1l9.63,20.79H685l-9.24-20.11h.45L667,1036.55Zm3.33-6.09.38-.86H682.3l.39.86Z" transform="translate(-328.31 -840.14)"/><path class="cls-3" d="M693.11,1036.55v-20.79H694l15.26,19.6h-.5v-19.6h1v20.79h-.83l-15.27-19.61h.5v19.61Z" transform="translate(-328.31 -840.14)"/><path class="cls-3" d="M728.9,1036.67a11.34,11.34,0,0,1-4.24-.79,10.39,10.39,0,0,1-3.42-2.21,10.16,10.16,0,0,1-2.26-3.35,11.27,11.27,0,0,1,0-8.34,10.12,10.12,0,0,1,2.26-3.34,10.23,10.23,0,0,1,3.42-2.21,11.15,11.15,0,0,1,4.24-.79,11.59,11.59,0,0,1,4,.68,8.64,8.64,0,0,1,3.24,2.08l-.62.65a8.35,8.35,0,0,0-3-1.91,10.44,10.44,0,0,0-3.52-.58,10,10,0,0,0-3.86.73,9.32,9.32,0,0,0-3.1,2,9.21,9.21,0,0,0-2.05,3,10.18,10.18,0,0,0,0,7.57,9.17,9.17,0,0,0,2.05,3,9.5,9.5,0,0,0,3.1,2,10.24,10.24,0,0,0,3.86.73,10.69,10.69,0,0,0,3.52-.58,8.34,8.34,0,0,0,3-2l.62.65a8.81,8.81,0,0,1-3.24,2.1A11.37,11.37,0,0,1,728.9,1036.67Z" transform="translate(-328.31 -840.14)"/><path class="cls-3" d="M745.45,1035.63h13v.92h-14v-20.79h13.63v.92H745.45Zm-.18-10.1h11.46v.92H745.27Z" transform="translate(-328.31 -840.14)"/><path class="cls-3" d="M783,1036.67a11.53,11.53,0,0,1-4.32-.82,7.86,7.86,0,0,1-3.11-2.06l.54-.72A8,8,0,0,0,779,1035a10.14,10.14,0,0,0,4,.78,9.06,9.06,0,0,0,3.56-.59,4.56,4.56,0,0,0,2.07-1.59,3.91,3.91,0,0,0,.67-2.21,3.47,3.47,0,0,0-.72-2.29,4.84,4.84,0,0,0-1.88-1.36,15.37,15.37,0,0,0-2.56-.84c-.92-.21-1.85-.45-2.79-.69a14.23,14.23,0,0,1-2.58-1,4.73,4.73,0,0,1-1.87-1.61,4.59,4.59,0,0,1-.7-2.66,5,5,0,0,1,.74-2.61,5.31,5.31,0,0,1,2.32-2,9.24,9.24,0,0,1,4-.76,10.93,10.93,0,0,1,3.34.52,9,9,0,0,1,2.8,1.38l-.44.8a8.91,8.91,0,0,0-2.76-1.37,10.55,10.55,0,0,0-2.91-.44,8.51,8.51,0,0,0-3.46.61,4.45,4.45,0,0,0-2,1.62,4,4,0,0,0-.65,2.22,3.55,3.55,0,0,0,.71,2.32,5,5,0,0,0,1.89,1.37,16.14,16.14,0,0,0,2.57.83c.93.22,1.86.45,2.79.7a13,13,0,0,1,2.57,1,5.11,5.11,0,0,1,1.87,1.59,4.47,4.47,0,0,1,.7,2.6,4.89,4.89,0,0,1-.76,2.61,5.3,5.3,0,0,1-2.38,2A9.8,9.8,0,0,1,783,1036.67Z" transform="translate(-328.31 -840.14)"/><path class="cls-3" d="M802.29,1036.55v-19.87h-7.63v-.92h16.25v.92h-7.64v19.87Z" transform="translate(-328.31 -840.14)"/><path class="cls-3" d="M825.34,1036.67a8,8,0,0,1-6-2.23c-1.46-1.49-2.19-3.7-2.19-6.65v-12h1v12c0,2.69.63,4.69,1.87,6a8.06,8.06,0,0,0,10.58,0q1.88-2,1.87-6v-12h1v12c0,3-.73,5.16-2.18,6.65A8,8,0,0,1,825.34,1036.67Z" transform="translate(-328.31 -840.14)"/><path class="cls-3" d="M843.87,1036.55v-20.79h8a11.85,11.85,0,0,1,5.79,1.35,9.89,9.89,0,0,1,3.85,3.68,11.1,11.1,0,0,1,0,10.72,9.84,9.84,0,0,1-3.85,3.69,11.85,11.85,0,0,1-5.79,1.35Zm1-.92h7a11.13,11.13,0,0,0,5.33-1.22,8.62,8.62,0,0,0,3.51-3.36,10.38,10.38,0,0,0,0-9.8,8.66,8.66,0,0,0-3.51-3.35,11,11,0,0,0-5.33-1.22h-7Z" transform="translate(-328.31 -840.14)"/><path class="cls-3" d="M871.38,1036.55v-20.79h1v20.79Z" transform="translate(-328.31 -840.14)"/><path class="cls-3" d="M891.57,1036.67a11.34,11.34,0,0,1-4.24-.79,10.39,10.39,0,0,1-3.42-2.21,10.16,10.16,0,0,1-2.26-3.35,11.27,11.27,0,0,1,0-8.34,10.12,10.12,0,0,1,2.26-3.34,10.23,10.23,0,0,1,3.42-2.21,11.15,11.15,0,0,1,4.24-.79,11.28,11.28,0,0,1,4.28.79,10,10,0,0,1,3.4,2.21,10.43,10.43,0,0,1,2.26,3.34,11,11,0,0,1,0,8.34,10.48,10.48,0,0,1-2.26,3.35,10.2,10.2,0,0,1-3.4,2.21A11.48,11.48,0,0,1,891.57,1036.67Zm0-.92a10.25,10.25,0,0,0,3.87-.72,9.27,9.27,0,0,0,5.15-5.06,10.33,10.33,0,0,0,0-7.63,9.25,9.25,0,0,0-5.15-5.07,10.79,10.79,0,0,0-7.7,0,9.25,9.25,0,0,0-5.15,5.07,10.33,10.33,0,0,0,0,7.63,9.27,9.27,0,0,0,5.15,5.06A10.15,10.15,0,0,0,891.57,1035.75Z" transform="translate(-328.31 -840.14)"/></svg>