<svg width="24" height="24" viewBox="0 0 24 24" fill="none" xmlns="http://www.w3.org/2000/svg">
<g clip-path="url(#clip0_72_2)">
<path d="M1.63125 1.63125C0.24375 2.90313 -0.21875 5.79375 -0.21875 12.5C-0.21875 24.4094 0.590625 25.2188 12.5 25.2188C19.2063 25.2188 22.0969 24.7563 23.3687 23.3687C24.7562 22.0969 25.2188 19.2063 25.2188 12.5C25.2188 0.590625 24.4094 -0.21875 12.5 -0.21875C5.79375 -0.21875 2.90312 0.24375 1.63125 1.63125Z" fill="white"/>
<path d="M13.6562 10.6501C13.6562 17.0094 12.1531 19.5532 9.95618 17.3563C9.03118 16.4313 9.1468 15.5063 10.1874 14.2344C12.1531 11.9219 10.7656 10.5344 8.45305 12.5001C4.5218 15.7376 9.03118 22.5594 13.4249 19.9001C14.5812 19.0907 15.5062 16.8938 15.7374 13.8876C15.9687 10.3032 16.5468 9.26255 17.8187 9.84068C18.628 10.1876 19.4374 10.0719 19.4374 9.72505C19.4374 8.91568 15.0437 4.4063 14.2343 4.4063C13.8874 4.4063 13.6562 7.1813 13.6562 10.6501Z" fill="#1D3858"/>
</g>
<defs>
<clipPath id="clip0_72_2">
<rect width="24" height="24" fill="white"/>
</clipPath>
</defs>
</svg>
