<svg width="25" height="25" viewBox="0 0 25 25" fill="none" xmlns="http://www.w3.org/2000/svg">
<g clip-path="url(#clip0_243_33)">
<path d="M19.7917 0H5.20833C2.33229 0 0 2.33229 0 5.20833V19.7917C0 22.6677 2.33229 25 5.20833 25H19.7917C22.6687 25 25 22.6677 25 19.7917V5.20833C25 2.33229 22.6687 0 19.7917 0ZM19.6469 9.62188C19.8646 14.4313 16.2781 19.7938 9.92812 19.7938C7.99687 19.7938 6.2 19.2281 4.68646 18.2573C6.50104 18.4708 8.31146 17.9677 9.74896 16.8417C8.25208 16.8135 6.98958 15.825 6.55521 14.4667C7.09167 14.5687 7.61875 14.5385 8.09896 14.4083C6.45417 14.0781 5.31979 12.5969 5.35625 11.0125C5.81667 11.2687 6.34479 11.4229 6.90417 11.4406C5.38229 10.4229 4.95104 8.4125 5.84583 6.875C7.53229 8.94375 10.0521 10.3052 12.8937 10.4479C12.3948 8.30937 14.0187 6.25 16.226 6.25C17.2083 6.25 18.0979 6.66458 18.7208 7.33021C19.5 7.17708 20.2323 6.89271 20.8937 6.50104C20.6375 7.3 20.0958 7.96979 19.3906 8.39271C20.0823 8.30937 20.7417 8.12604 21.3542 7.85417C20.8969 8.5375 20.3167 9.13958 19.6469 9.62188Z" fill="#1D3858"/>
</g>
<defs>
<clipPath id="clip0_243_33">
<rect width="25" height="25" fill="white"/>
</clipPath>
</defs>
</svg>
