<?xml version="1.0" standalone="no"?>
<!DOCTYPE svg PUBLIC "-//W3C//DTD SVG 20010904//EN"
 "http://www.w3.org/TR/2001/REC-SVG-20010904/DTD/svg10.dtd">
<svg version="1.0" xmlns="http://www.w3.org/2000/svg"
 width="200.000000pt" height="200.000000pt" viewBox="0 0 200.000000 200.000000"
 preserveAspectRatio="xMidYMid meet">

<g transform="translate(0.000000,200.000000) scale(0.100000,-0.100000)"
fill="#000000" stroke="none">
<path d="M0 1000 l0 -1000 1000 0 1000 0 0 1000 0 1000 -1000 0 -1000 0 0
-1000z m1523 507 l26 -17 -24 -38 c-48 -72 -170 -245 -189 -266 -10 -11 -38
-51 -62 -88 -23 -36 -76 -110 -116 -164 -40 -53 -96 -129 -124 -168 -107 -149
-212 -214 -359 -224 -135 -8 -239 30 -330 122 -64 63 -99 123 -119 201 -54
205 44 410 243 508 62 30 71 32 181 32 108 0 119 -2 182 -32 72 -34 145 -95
179 -150 l22 -35 18 23 c11 13 37 51 60 84 134 195 194 239 315 233 45 -2 80
-9 97 -21z"/>
<path d="M608 1171 c-93 -19 -161 -101 -161 -196 0 -116 81 -195 199 -195 76
0 126 29 172 100 19 30 72 104 117 165 45 60 85 116 89 123 6 9 -34 12 -186
11 -106 -1 -210 -5 -230 -8z"/>
</g>
</svg>
