<svg width="25" height="25" viewBox="0 0 25 25" fill="none" xmlns="http://www.w3.org/2000/svg">
<path d="M19.7917 0L5.20833 0C2.33229 0 0 2.33229 0 5.20833L0 19.7917C0 22.6677 2.33229 25 5.20833 25L19.7917 25C22.6687 25 25 22.6677 25 19.7917L25 5.20833C25 2.33229 22.6687 0 19.7917 0ZM16.6667 7.29167L14.6625 7.29167C14.0219 7.29167 13.5417 7.55417 13.5417 8.21771L13.5417 9.375L16.6667 9.375L16.4187 12.5L13.5417 12.5L13.5417 20.8333L10.4167 20.8333L10.4167 12.5L8.33333 12.5L8.33333 9.375L10.4167 9.375L10.4167 7.37187C10.4167 5.26562 11.525 4.16667 14.0219 4.16667L16.6667 4.16667L16.6667 7.29167Z" fill="#1D3858"/>
</svg>
