<svg width="25" height="25" viewBox="0 0 25 25" fill="none" xmlns="http://www.w3.org/2000/svg">
<g clip-path="url(#clip0_243_35)">
<path d="M19.7917 0H5.20833C2.33229 0 0 2.33229 0 5.20833V19.7917C0 22.6677 2.33229 25 5.20833 25H19.7917C22.6687 25 25 22.6677 25 19.7917V5.20833C25 2.33229 22.6687 0 19.7917 0ZM16.6667 7.29167H14.6625C14.0219 7.29167 13.5417 7.55417 13.5417 8.21771V9.375H16.6667L16.4187 12.5H13.5417V20.8333H10.4167V12.5H8.33333V9.375H10.4167V7.37187C10.4167 5.26563 11.525 4.16667 14.0219 4.16667H16.6667V7.29167Z" fill="#1D3858"/>
</g>
<defs>
<clipPath id="clip0_243_35">
<rect width="25" height="25" fill="white"/>
</clipPath>
</defs>
</svg>
