<svg id="Layer_1" data-name="Layer 1" xmlns="http://www.w3.org/2000/svg" viewBox="0 0 577.1 218.48"><defs><style>.cls-1,.cls-2{stroke:#000;stroke-miterlimit:10;}.cls-1{stroke-width:2px;}.cls-2{font-size:32px;stroke-width:2.5px;font-family:Montserrat-ExtraLight, Montserrat;font-weight:200;letter-spacing:0.09em;}.cls-3{letter-spacing:0.1em;}.cls-4{letter-spacing:0.08em;}.cls-5{letter-spacing:0.1em;}.cls-6{fill:#662483;}</style></defs><path class="cls-1" d="M341.51,549.54V403.59h5.37v79.07l-1.63,15.54,1.47,15.54v35.8Zm41.72.49a40.09,40.09,0,0,1-20.54-5.3,37.82,37.82,0,0,1-14.42-15.07,46.51,46.51,0,0,1-5.3-22.5q0-12.87,5.3-22.49a38.66,38.66,0,0,1,14.42-15,39.66,39.66,0,0,1,20.54-5.38,40.49,40.49,0,0,1,35.94,20.62q5.46,9.52,5.46,22.24a44.55,44.55,0,0,1-5.46,22.25,39.85,39.85,0,0,1-14.83,15.16A41.18,41.18,0,0,1,383.23,550Zm-.16-4.89a35.91,35.91,0,0,0,18.49-4.81,34.22,34.22,0,0,0,13-13.44,43.66,43.66,0,0,0,0-39.53,33.86,33.86,0,0,0-13-13.28,38.68,38.68,0,0,0-37.07,0,34,34,0,0,0-12.88,13.28,43.66,43.66,0,0,0,0,39.53,34.37,34.37,0,0,0,12.88,13.44A35.8,35.8,0,0,0,383.07,545.14Z" transform="translate(-340.51 -402.59)"/><path class="cls-1" d="M484.44,550a44.14,44.14,0,0,1-22.17-5.46,39.62,39.62,0,0,1-15.15-15.24,44.1,44.1,0,0,1-5.55-22.17A46.37,46.37,0,0,1,446.71,485a38.93,38.93,0,0,1,14.18-15.16,38.38,38.38,0,0,1,20.45-5.54,38.89,38.89,0,0,1,20.29,5.38,37.71,37.71,0,0,1,14.18,14.91,45.57,45.57,0,0,1,5.13,21.92V508H445.16v-4.4H518l-2.11,2.61a39.66,39.66,0,0,0-4.49-19,33.82,33.82,0,0,0-12.3-13.2,35.21,35.21,0,0,0-35.53,0,33.84,33.84,0,0,0-12.31,13.2,40,40,0,0,0-4.48,19.15v1A38.89,38.89,0,0,0,451.68,527,35.06,35.06,0,0,0,465,540.33a38.61,38.61,0,0,0,19.4,4.81,40.52,40.52,0,0,0,15.73-3.09,29.85,29.85,0,0,0,12.31-9.46l3.42,3.59A36.56,36.56,0,0,1,502,546.52,44.21,44.21,0,0,1,484.44,550Z" transform="translate(-340.51 -402.59)"/><path class="cls-1" d="M659.65,550a41.48,41.48,0,0,1-21.27-5.46,39.58,39.58,0,0,1-14.83-15.24,44.67,44.67,0,0,1-5.46-22.17A44.1,44.1,0,0,1,623.55,485a40.57,40.57,0,0,1,14.83-15.16,41,41,0,0,1,21.27-5.54A41.46,41.46,0,0,1,681,469.84,39.77,39.77,0,0,1,695.83,485a44.59,44.59,0,0,1,5.38,22.16,45.16,45.16,0,0,1-5.38,22.17A38.82,38.82,0,0,1,681,544.57,41.9,41.9,0,0,1,659.65,550Zm0-4.89a36.27,36.27,0,0,0,18.66-4.81,33.69,33.69,0,0,0,12.88-13.44,44.42,44.42,0,0,0,0-39.53,33.33,33.33,0,0,0-12.88-13.28,36.82,36.82,0,0,0-18.66-4.73,36.09,36.09,0,0,0-18.42,4.73,34.59,34.59,0,0,0-13,13.28,43,43,0,0,0,0,39.53,35,35,0,0,0,13,13.44A35.55,35.55,0,0,0,659.65,545.14Z" transform="translate(-340.51 -402.59)"/><path class="cls-1" d="M767.71,464.3a37.59,37.59,0,0,1,18,4.07,28.5,28.5,0,0,1,11.81,12q4.25,7.9,4.24,19.48v49.71h-5.38V500.15q0-15.15-7.66-23t-21.51-7.82A37.21,37.21,0,0,0,749,473.59a28.63,28.63,0,0,0-11.74,12.06,39.08,39.08,0,0,0-4.07,18.26v45.63h-5.38V465H733v23.8l-.65-1.47a34.18,34.18,0,0,1,13-16.79Q754.35,464.3,767.71,464.3Z" transform="translate(-340.51 -402.59)"/><path class="cls-1" d="M868.76,550a41.14,41.14,0,0,1-21.1-5.46,39.67,39.67,0,0,1-14.84-15.16,44.55,44.55,0,0,1-5.46-22.25q0-12.71,5.46-22.24a40.52,40.52,0,0,1,35.94-20.62,39.66,39.66,0,0,1,20.54,5.38,38.66,38.66,0,0,1,14.42,15q5.29,9.63,5.3,22.49a46.51,46.51,0,0,1-5.3,22.5,37.82,37.82,0,0,1-14.42,15.07A40.09,40.09,0,0,1,868.76,550Zm.17-4.89a35.79,35.79,0,0,0,18.57-4.81,34.37,34.37,0,0,0,12.88-13.44,43.66,43.66,0,0,0,0-39.53,34,34,0,0,0-12.88-13.28,38.52,38.52,0,0,0-37,0,34.55,34.55,0,0,0-13,13.28,43,43,0,0,0,0,39.53,34.91,34.91,0,0,0,13,13.44A35.5,35.5,0,0,0,868.93,545.14Zm36.34,4.4v-35.8l1.47-15.54-1.63-15.54V403.59h5.38v146Z" transform="translate(-340.51 -402.59)"/><text class="cls-2" transform="translate(286.54 184.66)">D<tspan class="cls-3" x="29.31" y="0">ANCE </tspan><tspan x="145.95" y="0">S</tspan><tspan class="cls-4" x="168.16" y="0">T</tspan><tspan class="cls-5" x="188.64" y="0">UDIO</tspan></text><path class="cls-6" d="M565.49,416.12c-1.72,3.67-2.54,7.26-3.37,13.69-1.34,11.15-1.64,12.05-8.15,28.51-3.07,7.64-6.06,15.72-6.66,18.11-1.5,5.84-2.1,19.31-1.42,30.83l.6,9.65-2.62,1.72a24.08,24.08,0,0,1-5.84,2.55c-4.19,1-8.16,4.64-9.28,8.38-.67,2.32-.67,4.41,0,9.43a157.7,157.7,0,0,1,.83,18.85c-.08,10.4.15,13.32,1.49,18.48a53.59,53.59,0,0,1,1.57,9.81v3.66l-10.25.45c-9.8.37-18.18,1.65-23,3.52a69.08,69.08,0,0,1-11.6,1.42c-5.16.3-10.1,1-11,1.42a8.24,8.24,0,0,1-3.52.9,38.53,38.53,0,0,0-6.58,1.2c-3.82,1-7,1.19-17.06.82-18.56-.75-31.21-2.84-48.34-8.31-11-3.44-18.93-4.56-27.54-3.81-3.74.3-8,.6-9.42.67-2,.08-2.7.45-2.85,1.5-.45,2.17,1.87,3.44,6.14,3.44,5.61,0,12.57,1.42,15.79,3.22,2.32,1.34,3.06,2.39,4.19,5.76,1.34,4.19,3.59,6.73,5.91,6.73a33.34,33.34,0,0,0,6.58-2.24c3.82-1.57,6.51-2.25,9.51-2.25,5.08,0,13.09,2.55,19.6,6.21,11,6.29,21.18,8.68,30.15,7.26,2.7-.45,10-1.12,16.09-1.5,9.5-.52,12.65-.44,20.58.75,13.09,1.95,39.06,4.12,49.76,4.12,8.45,0,9.35-.15,15.71-2.62l6.74-2.62,12,.15a233.7,233.7,0,0,0,23.94-1c6.59-.6,22.75-1.42,35.92-1.8,24.24-.67,36.74-1.94,49.76-4.94,4.64-1.12,9.57-1.34,28.43-1.42,22-.07,32.18-.6,35.77-1.94l1.64-.68-2-3.66c-1.87-3.3-2.62-4-6.43-5.39l-4.34-1.65-7.26,1.65c-4,.9-10.4,2.09-14.22,2.69-6.81,1-7.33,1-21-1.27-17.28-2.92-34.57-3.37-40.93-1.12-4.49,1.49-2.69,1.79-33.59-5.09-12-2.62-23.2-5-24.92-5.31-4.42-.68-7.86-3-12-8.08a53.48,53.48,0,0,0-10.33-9.06l-6.73-4.56.22-3.67a21.1,21.1,0,0,1,2.47-8.15c3.29-6.21,10.1-16.77,13-20a47.18,47.18,0,0,0,4.56-6.36c1.13-2,4.27-7.41,6.89-11.9a104,104,0,0,0,7.33-15.26c2.84-7.86,5.69-12.8,10.85-18.49,3.89-4.34,7.56-9.57,13.32-19.23,2.32-3.81,4.41-6.51,5.09-6.51s3.74-1.64,6.88-3.59a51.18,51.18,0,0,1,8.31-4.49c3.22-1.12,6-2.92,6-3.89,0-.37-1.72-.07-3.81.82s-4,1.28-4.34,1-.08-.68.45-.83c1.72-.59,9.2-6.28,9.2-7,0-1.12-1.65-.82-4.34.82-3.74,2.32-3.74,1.8,0-1s5-4.94,3.22-4.94c-.68,0-3.44,1.57-6.29,3.44-5.61,3.67-9.05,4.34-3.81.67,4.34-3,7.4-7.11,5.31-7.11-.38,0-4.42,2.55-9.05,5.69-7.86,5.39-8.39,5.61-9.36,4.34-2.69-3.74-3.29-4.34-3.74-3.89-.3.3-.15,1.57.3,2.92a32.08,32.08,0,0,1,.82,7.71v5.31l-10.47,10.47c-5.84,5.77-11.38,12-12.5,13.85-1.72,3.06-10.32,12-11.37,12a14.47,14.47,0,0,1-2.47-3,16.31,16.31,0,0,0-13.69-7c-4.87.08-8.16,1.35-12.2,4.87-2.54,2.24-3.14,2.46-6,1.64-1.64-.37-1.72-.75-1.42-4.26a53.91,53.91,0,0,1,1.57-7.93,94.46,94.46,0,0,0,1.8-12.35,53.59,53.59,0,0,1,2.77-13.84c1.87-5,2-6.14,1.49-11.23-.3-3.07-.52-9.2-.45-13.69s-.07-8-.29-8S566.69,413.43,565.49,416.12Zm-4.41,68.39c0,.45-1.35,2.25-3,4a23.36,23.36,0,0,0-3,3.67,31.06,31.06,0,0,0,3.37,4.34c1.87,2.17,3.14,4.11,3,4.34-.75.67-7-7-7.11-8.53,0-.9,1.35-2.84,3-4.42s3-3.14,3-3.51.15-.68.37-.68S561.08,484.14,561.08,484.51Z" transform="translate(-340.51 -402.59)"/></svg>