<svg id="Layer_1" data-name="Layer 1" xmlns="http://www.w3.org/2000/svg" viewBox="0 0 574.77 197.28"><defs><style>.cls-1,.cls-5{stroke:#000;}.cls-1,.cls-2,.cls-5{stroke-miterlimit:10;}.cls-1{stroke-width:5px;}.cls-2,.cls-3{fill:#662483;}.cls-2{stroke:#662483;stroke-width:3px;}.cls-4{fill:#fff;}.cls-5{stroke-width:1.5px;}</style></defs><path class="cls-1" d="M330.81,988.59v-146h5.38v79.07l-1.64,15.54L336,952.79v35.8Zm41.72.49a40,40,0,0,1-20.53-5.3,37.77,37.77,0,0,1-14.43-15.07,46.51,46.51,0,0,1-5.3-22.5q0-12.87,5.3-22.49a38.62,38.62,0,0,1,14.43-15,39.6,39.6,0,0,1,20.53-5.38A40.49,40.49,0,0,1,408.47,924q5.46,9.53,5.46,22.24a44.55,44.55,0,0,1-5.46,22.25,39.71,39.71,0,0,1-14.83,15.16A41.18,41.18,0,0,1,372.53,989.08Zm-.16-4.89a36,36,0,0,0,18.5-4.81,34.26,34.26,0,0,0,12.95-13.44,43.66,43.66,0,0,0,0-39.53,33.9,33.9,0,0,0-12.95-13.28,38.7,38.7,0,0,0-37.08,0,34.07,34.07,0,0,0-12.88,13.28,43.74,43.74,0,0,0,0,39.53,34.44,34.44,0,0,0,12.88,13.44A35.8,35.8,0,0,0,372.37,984.19Z" transform="translate(-328.31 -840.14)"/><path class="cls-1" d="M473.74,989.08a44.16,44.16,0,0,1-22.17-5.46,39.62,39.62,0,0,1-15.15-15.24,44.09,44.09,0,0,1-5.54-22.17A46.37,46.37,0,0,1,436,924.05a38.93,38.93,0,0,1,14.18-15.16,38.38,38.38,0,0,1,20.45-5.54,38.87,38.87,0,0,1,20.29,5.38,37.71,37.71,0,0,1,14.18,14.91,45.46,45.46,0,0,1,5.14,21.92V947H434.46v-4.4h72.86L506,944.24a.47.47,0,0,1-.83-.29,39.31,39.31,0,0,0-4.46-17.7,33.84,33.84,0,0,0-12.31-13.2,35.21,35.21,0,0,0-35.53,0,33.84,33.84,0,0,0-12.31,13.2,40,40,0,0,0-4.48,19.15v1A38.89,38.89,0,0,0,441,966a35.09,35.09,0,0,0,13.37,13.36,38.55,38.55,0,0,0,19.39,4.81,40.52,40.52,0,0,0,15.73-3.09,29.79,29.79,0,0,0,12.31-9.46l3.42,3.59a36.56,36.56,0,0,1-13.94,10.34A44.18,44.18,0,0,1,473.74,989.08Z" transform="translate(-328.31 -840.14)"/><path class="cls-1" d="M649,989.08a41.48,41.48,0,0,1-21.27-5.46,39.58,39.58,0,0,1-14.83-15.24,44.67,44.67,0,0,1-5.46-22.17,44.1,44.1,0,0,1,5.46-22.16,40.57,40.57,0,0,1,14.83-15.16A41,41,0,0,1,649,903.35a41.46,41.46,0,0,1,21.35,5.54,39.86,39.86,0,0,1,14.84,15.16,44.69,44.69,0,0,1,5.38,22.16,45.27,45.27,0,0,1-5.38,22.17,38.92,38.92,0,0,1-14.84,15.24A41.9,41.9,0,0,1,649,989.08Zm0-4.89a36.34,36.34,0,0,0,18.67-4.81,33.73,33.73,0,0,0,12.87-13.44,44.33,44.33,0,0,0,0-39.53,33.37,33.37,0,0,0-12.87-13.28A36.88,36.88,0,0,0,649,908.4a36,36,0,0,0-18.41,4.73,34.55,34.55,0,0,0-13,13.28,43,43,0,0,0,0,39.53,34.91,34.91,0,0,0,13,13.44A35.49,35.49,0,0,0,649,984.19Z" transform="translate(-328.31 -840.14)"/><path class="cls-1" d="M757,903.35a37.66,37.66,0,0,1,18,4.07,28.61,28.61,0,0,1,11.81,12q4.23,7.9,4.23,19.48v49.71H785.7V939.2q0-15.15-7.66-23t-21.52-7.82a37.21,37.21,0,0,0-18.25,4.24,28.63,28.63,0,0,0-11.74,12.06A39.08,39.08,0,0,0,722.46,943v45.63h-5.38V904h5.22v23.8l-.65-1.47a34.09,34.09,0,0,1,13-16.78Q743.65,903.34,757,903.35Z" transform="translate(-328.31 -840.14)"/><path class="cls-1" d="M858.06,989.08a41.14,41.14,0,0,1-21.1-5.46,39.71,39.71,0,0,1-14.83-15.16,44.45,44.45,0,0,1-5.46-22.25q0-12.71,5.46-22.24a40.49,40.49,0,0,1,35.93-20.62,39.66,39.66,0,0,1,20.54,5.38,38.76,38.76,0,0,1,14.43,15q5.28,9.63,5.3,22.49a46.63,46.63,0,0,1-5.3,22.5,37.91,37.91,0,0,1-14.43,15.07A40.09,40.09,0,0,1,858.06,989.08Zm.17-4.89a35.85,35.85,0,0,0,18.58-4.81,34.41,34.41,0,0,0,12.87-13.44,43.66,43.66,0,0,0,0-39.53,34,34,0,0,0-12.87-13.28,38.54,38.54,0,0,0-37,0,34.62,34.62,0,0,0-13,13.28,43.09,43.09,0,0,0,0,39.53,35,35,0,0,0,13,13.44A35.53,35.53,0,0,0,858.23,984.19Zm36.34,4.4v-35.8L896,937.25l-1.63-15.54V842.64h5.38v146Z" transform="translate(-328.31 -840.14)"/><path class="cls-2" d="M544.72,1017.33A28.88,28.88,0,0,1,533.1,1015a23.67,23.67,0,0,1-9.12-7l3.4-5.27a26.2,26.2,0,0,0,7.87,6.59,20.27,20.27,0,0,0,9.47,2.12,18.36,18.36,0,0,0,12-4.25q5.17-4.25,9.65-15.6l6.8-16.61.89-1.62,40.41-101.07h6.26L572.08,993.23a59.12,59.12,0,0,1-7.78,14.29,23.2,23.2,0,0,1-19.58,9.81Zm16.18-30.52L517.63,899.2h6.44l40.23,82Z" transform="translate(-328.31 -840.14)"/><path class="cls-3" d="M601.23,976.8l-1.6-.31c-12.55-2.42-15.52-3-16.07-15.6,0,0,0-.07,0-.1,0-.27,0-.57-.08-.89-.7-7.71-2.83-31.16-37.16-31.16-10,0-17.94,3-23.7,8.75-9.42,9.48-9.43,23.08-9.43,23.65l.15,73.65a1.88,1.88,0,0,0,1.87,1.88H618.31a1.88,1.88,0,0,0,1.88-1.88,2.11,2.11,0,0,0,0-.25c0-2.8-.18-21,.09-30.84C620.65,989.61,617.56,979.63,601.23,976.8Z" transform="translate(-328.31 -840.14)"/><rect class="cls-4" x="188.2" y="177.75" width="4.34" height="15.08" rx="0.58"/><rect class="cls-4" x="193" y="177.75" width="4.34" height="15.08" rx="0.58"/><rect class="cls-4" x="197.79" y="177.75" width="4.34" height="15.08" rx="0.58"/><rect class="cls-4" x="202.58" y="177.75" width="4.34" height="15.08" rx="0.58"/><rect class="cls-4" x="207.38" y="177.75" width="4.34" height="15.08" rx="0.58"/><rect class="cls-4" x="212.17" y="177.75" width="4.34" height="15.08" rx="0.58"/><rect class="cls-4" x="216.96" y="177.75" width="4.34" height="15.08" rx="0.58"/><path class="cls-3" d="M519.43,1017.86v8.28a.38.38,0,0,0,.38.38h2.09a.38.38,0,0,0,.38-.38v-8.28Z" transform="translate(-328.31 -840.14)"/><path class="cls-3" d="M524.22,1017.86v8.28a.38.38,0,0,0,.38.38h2.1a.38.38,0,0,0,.38-.38v-8.28Z" transform="translate(-328.31 -840.14)"/><path class="cls-3" d="M534.26,1017.86v8.28a.38.38,0,0,0,.38.38h2.09a.38.38,0,0,0,.38-.38v-8.28Z" transform="translate(-328.31 -840.14)"/><path class="cls-3" d="M538.6,1017.86v8.28a.38.38,0,0,0,.38.38h2.1a.38.38,0,0,0,.38-.38v-8.28Z" transform="translate(-328.31 -840.14)"/><path class="cls-3" d="M543.39,1017.86v8.28a.38.38,0,0,0,.38.38h2.1a.38.38,0,0,0,.38-.38v-8.28Z" transform="translate(-328.31 -840.14)"/><rect class="cls-4" x="255.84" y="177.75" width="4.34" height="15.08" rx="0.58"/><rect class="cls-4" x="260.63" y="177.75" width="4.34" height="15.08" rx="0.58"/><path class="cls-4" d="M598.07,1032.39a.58.58,0,0,1-.58.58h-3.18a.58.58,0,0,1-.58-.58v-13.92a.58.58,0,0,1,.58-.58h3.18a.58.58,0,0,1,.58.58Z" transform="translate(-328.31 -840.14)"/><rect class="cls-4" x="270.21" y="177.75" width="4.34" height="15.08" rx="0.58"/><rect class="cls-4" x="275.01" y="177.75" width="4.34" height="15.08" rx="0.58"/><rect class="cls-4" x="279.8" y="177.75" width="4.34" height="15.08" rx="0.58"/><rect class="cls-4" x="284.59" y="177.75" width="4.34" height="15.08" rx="0.58"/><path class="cls-3" d="M587.06,1017.86v8.28a.38.38,0,0,0,.38.38h2.09a.38.38,0,0,0,.38-.38v-8.28Z" transform="translate(-328.31 -840.14)"/><path class="cls-3" d="M591.85,1017.86v8.28a.38.38,0,0,0,.38.38h2.1a.38.38,0,0,0,.38-.38v-8.28Z" transform="translate(-328.31 -840.14)"/><path class="cls-3" d="M601.89,1017.86v8.28a.37.37,0,0,0,.38.38h2.09a.38.38,0,0,0,.38-.38v-8.28Z" transform="translate(-328.31 -840.14)"/><path class="cls-3" d="M606.23,1017.86v8.28a.38.38,0,0,0,.38.38h2.1a.39.39,0,0,0,.38-.38v-8.28Z" transform="translate(-328.31 -840.14)"/><path class="cls-3" d="M611,1017.86v8.28a.38.38,0,0,0,.38.38h2.1a.38.38,0,0,0,.38-.38v-8.28Z" transform="translate(-328.31 -840.14)"/><rect class="cls-4" x="222.05" y="177.75" width="4.34" height="15.08" rx="0.58"/><rect class="cls-4" x="226.84" y="177.75" width="4.34" height="15.08" rx="0.58"/><rect class="cls-4" x="231.63" y="177.75" width="4.34" height="15.08" rx="0.58"/><rect class="cls-4" x="236.43" y="177.75" width="4.34" height="15.08" rx="0.58"/><rect class="cls-4" x="241.22" y="177.75" width="4.34" height="15.08" rx="0.58"/><rect class="cls-4" x="246.01" y="177.75" width="4.34" height="15.08" rx="0.58"/><rect class="cls-4" x="250.81" y="177.75" width="4.34" height="15.08" rx="0.58"/><path class="cls-3" d="M553.27,1017.86v8.28a.38.38,0,0,0,.38.38h2.1a.38.38,0,0,0,.38-.38v-8.28Z" transform="translate(-328.31 -840.14)"/><path class="cls-3" d="M558.06,1017.86v8.28a.38.38,0,0,0,.38.38h2.1a.38.38,0,0,0,.38-.38v-8.28Z" transform="translate(-328.31 -840.14)"/><path class="cls-3" d="M568.1,1017.86v8.28a.38.38,0,0,0,.38.38h2.1a.38.38,0,0,0,.38-.38v-8.28Z" transform="translate(-328.31 -840.14)"/><path class="cls-3" d="M572.44,1017.86v8.28a.38.38,0,0,0,.38.38h2.1a.38.38,0,0,0,.38-.38v-8.28Z" transform="translate(-328.31 -840.14)"/><path class="cls-3" d="M577.23,1017.86v8.28a.38.38,0,0,0,.39.38h2.09a.38.38,0,0,0,.38-.38v-8.28Z" transform="translate(-328.31 -840.14)"/><path class="cls-5" d="M642.27,1036.55v-20.79h8a11.85,11.85,0,0,1,5.79,1.35,10,10,0,0,1,3.85,3.68,11.1,11.1,0,0,1,0,10.72,10,10,0,0,1-3.85,3.69,11.85,11.85,0,0,1-5.79,1.35Zm1-.92h7a11.13,11.13,0,0,0,5.33-1.22,8.65,8.65,0,0,0,3.5-3.36,10.3,10.3,0,0,0,0-9.8,8.7,8.7,0,0,0-3.5-3.35,11,11,0,0,0-5.33-1.22h-7Z" transform="translate(-328.31 -840.14)"/><path class="cls-5" d="M665.88,1036.55l9.62-20.79h1l9.63,20.79H685l-9.24-20.11h.45L667,1036.55Zm3.33-6.09.38-.86H682.3l.39.86Z" transform="translate(-328.31 -840.14)"/><path class="cls-5" d="M693.11,1036.55v-20.79H694l15.26,19.6h-.5v-19.6h1v20.79h-.83l-15.27-19.61h.5v19.61Z" transform="translate(-328.31 -840.14)"/><path class="cls-5" d="M728.9,1036.67a11.34,11.34,0,0,1-4.24-.79,10.39,10.39,0,0,1-3.42-2.21,10.16,10.16,0,0,1-2.26-3.35,11.27,11.27,0,0,1,0-8.34,10.12,10.12,0,0,1,2.26-3.34,10.23,10.23,0,0,1,3.42-2.21,11.15,11.15,0,0,1,4.24-.79,11.59,11.59,0,0,1,4,.68,8.64,8.64,0,0,1,3.24,2.08l-.62.65a8.35,8.35,0,0,0-3-1.91,10.44,10.44,0,0,0-3.52-.58,10,10,0,0,0-3.86.73,9.32,9.32,0,0,0-3.1,2,9.21,9.21,0,0,0-2.05,3,10.18,10.18,0,0,0,0,7.57,9.17,9.17,0,0,0,2.05,3,9.5,9.5,0,0,0,3.1,2,10.24,10.24,0,0,0,3.86.73,10.69,10.69,0,0,0,3.52-.58,8.34,8.34,0,0,0,3-2l.62.65a8.81,8.81,0,0,1-3.24,2.1A11.37,11.37,0,0,1,728.9,1036.67Z" transform="translate(-328.31 -840.14)"/><path class="cls-5" d="M745.45,1035.63h13v.92h-14v-20.79h13.63v.92H745.45Zm-.18-10.1h11.46v.92H745.27Z" transform="translate(-328.31 -840.14)"/><path class="cls-5" d="M783,1036.67a11.53,11.53,0,0,1-4.32-.82,7.86,7.86,0,0,1-3.11-2.06l.54-.72A8,8,0,0,0,779,1035a10.14,10.14,0,0,0,4,.78,9.06,9.06,0,0,0,3.56-.59,4.56,4.56,0,0,0,2.07-1.59,3.91,3.91,0,0,0,.67-2.21,3.47,3.47,0,0,0-.72-2.29,4.84,4.84,0,0,0-1.88-1.36,15.37,15.37,0,0,0-2.56-.84c-.92-.21-1.85-.45-2.79-.69a14.23,14.23,0,0,1-2.58-1,4.73,4.73,0,0,1-1.87-1.61,4.59,4.59,0,0,1-.7-2.66,5,5,0,0,1,.74-2.61,5.31,5.31,0,0,1,2.32-2,9.24,9.24,0,0,1,4-.76,10.93,10.93,0,0,1,3.34.52,9,9,0,0,1,2.8,1.38l-.44.8a8.91,8.91,0,0,0-2.76-1.37,10.55,10.55,0,0,0-2.91-.44,8.51,8.51,0,0,0-3.46.61,4.45,4.45,0,0,0-2,1.62,4,4,0,0,0-.65,2.22,3.55,3.55,0,0,0,.71,2.32,5,5,0,0,0,1.89,1.37,16.14,16.14,0,0,0,2.57.83c.93.22,1.86.45,2.79.7a13,13,0,0,1,2.57,1,5.11,5.11,0,0,1,1.87,1.59,4.47,4.47,0,0,1,.7,2.6,4.89,4.89,0,0,1-.76,2.61,5.3,5.3,0,0,1-2.38,2A9.8,9.8,0,0,1,783,1036.67Z" transform="translate(-328.31 -840.14)"/><path class="cls-5" d="M802.29,1036.55v-19.87h-7.63v-.92h16.25v.92h-7.64v19.87Z" transform="translate(-328.31 -840.14)"/><path class="cls-5" d="M825.34,1036.67a8,8,0,0,1-6-2.23c-1.46-1.49-2.19-3.7-2.19-6.65v-12h1v12c0,2.69.63,4.69,1.87,6a8.06,8.06,0,0,0,10.58,0q1.88-2,1.87-6v-12h1v12c0,3-.73,5.16-2.18,6.65A8,8,0,0,1,825.34,1036.67Z" transform="translate(-328.31 -840.14)"/><path class="cls-5" d="M843.87,1036.55v-20.79h8a11.85,11.85,0,0,1,5.79,1.35,9.89,9.89,0,0,1,3.85,3.68,11.1,11.1,0,0,1,0,10.72,9.84,9.84,0,0,1-3.85,3.69,11.85,11.85,0,0,1-5.79,1.35Zm1-.92h7a11.13,11.13,0,0,0,5.33-1.22,8.62,8.62,0,0,0,3.51-3.36,10.38,10.38,0,0,0,0-9.8,8.66,8.66,0,0,0-3.51-3.35,11,11,0,0,0-5.33-1.22h-7Z" transform="translate(-328.31 -840.14)"/><path class="cls-5" d="M871.38,1036.55v-20.79h1v20.79Z" transform="translate(-328.31 -840.14)"/><path class="cls-5" d="M891.57,1036.67a11.34,11.34,0,0,1-4.24-.79,10.39,10.39,0,0,1-3.42-2.21,10.16,10.16,0,0,1-2.26-3.35,11.27,11.27,0,0,1,0-8.34,10.12,10.12,0,0,1,2.26-3.34,10.23,10.23,0,0,1,3.42-2.21,11.15,11.15,0,0,1,4.24-.79,11.28,11.28,0,0,1,4.28.79,10,10,0,0,1,3.4,2.21,10.43,10.43,0,0,1,2.26,3.34,11,11,0,0,1,0,8.34,10.48,10.48,0,0,1-2.26,3.35,10.2,10.2,0,0,1-3.4,2.21A11.48,11.48,0,0,1,891.57,1036.67Zm0-.92a10.25,10.25,0,0,0,3.87-.72,9.27,9.27,0,0,0,5.15-5.06,10.33,10.33,0,0,0,0-7.63,9.25,9.25,0,0,0-5.15-5.07,10.79,10.79,0,0,0-7.7,0,9.25,9.25,0,0,0-5.15,5.07,10.33,10.33,0,0,0,0,7.63,9.27,9.27,0,0,0,5.15,5.06A10.15,10.15,0,0,0,891.57,1035.75Z" transform="translate(-328.31 -840.14)"/></svg>