<svg width="37" height="37" viewBox="0 0 37 37" fill="none" xmlns="http://www.w3.org/2000/svg">
<path d="M7.63125 7.63125C6.24375 8.90313 5.78125 11.7937 5.78125 18.5C5.78125 30.4094 6.59062 31.2188 18.5 31.2188C25.2063 31.2188 28.0969 30.7563 29.3687 29.3687C30.7562 28.0969 31.2188 25.2063 31.2188 18.5C31.2188 6.59062 30.4094 5.78125 18.5 5.78125C11.7937 5.78125 8.90312 6.24375 7.63125 7.63125Z" fill="#1D3858"/>
<path d="M19.6562 16.6501C19.6562 23.0094 18.1531 25.5532 15.9562 23.3563C15.0312 22.4313 15.1468 21.5063 16.1874 20.2344C18.1531 17.9219 16.7656 16.5344 14.4531 18.5001C10.5218 21.7376 15.0312 28.5594 19.4249 25.9001C20.5812 25.0907 21.5062 22.8938 21.7374 19.8876C21.9687 16.3032 22.5468 15.2626 23.8187 15.8407C24.628 16.1876 25.4374 16.0719 25.4374 15.7251C25.4374 14.9157 21.0437 10.4063 20.2343 10.4063C19.8874 10.4063 19.6562 13.1813 19.6562 16.6501Z" fill="white"/>
</svg>
