<svg width="26" height="26" viewBox="0 0 26 26" fill="none" xmlns="http://www.w3.org/2000/svg">
<path d="M1.85 1.85C0.4625 3.12188 0 6.0125 0 12.7188C0 24.6281 0.809375 25.4375 12.7188 25.4375C19.425 25.4375 22.3156 24.975 23.5875 23.5875C24.975 22.3156 25.4375 19.425 25.4375 12.7188C25.4375 0.809375 24.6281 0 12.7188 0C6.0125 0 3.12187 0.4625 1.85 1.85Z" fill="#1D3858"/>
<path d="M13.8749 10.8687C13.8749 17.2281 12.3718 19.7718 10.1749 17.5749C9.24993 16.6499 9.36555 15.7249 10.4062 14.4531C12.3718 12.1406 10.9843 10.7531 8.6718 12.7187C4.74055 15.9562 9.24993 22.7781 13.6437 20.1187C14.7999 19.3093 15.7249 17.1124 15.9562 14.1062C16.1874 10.5218 16.7656 9.48118 18.0374 10.0593C18.8468 10.4062 19.6562 10.2906 19.6562 9.94368C19.6562 9.13431 15.2624 4.62493 14.4531 4.62493C14.1062 4.62493 13.8749 7.39993 13.8749 10.8687Z" fill="white"/>
</svg>
