<svg id="Layer_1" data-name="Layer 1" xmlns="http://www.w3.org/2000/svg" viewBox="0 0 574.77 201.79"><defs><style>.cls-1,.cls-3{stroke:#000;stroke-miterlimit:10;}.cls-1{stroke-width:5px;}.cls-2{fill:#662483;}.cls-3{stroke-width:1.5px;}</style></defs><path class="cls-1" d="M330.81,988.59v-146h5.38v79.07l-1.64,15.54L336,952.79v35.8Zm41.72.49a40,40,0,0,1-20.53-5.3,37.77,37.77,0,0,1-14.43-15.07,46.51,46.51,0,0,1-5.3-22.5q0-12.87,5.3-22.49a38.62,38.62,0,0,1,14.43-15,39.6,39.6,0,0,1,20.53-5.38A40.49,40.49,0,0,1,408.47,924q5.46,9.53,5.46,22.24a44.55,44.55,0,0,1-5.46,22.25,39.71,39.71,0,0,1-14.83,15.16A41.18,41.18,0,0,1,372.53,989.08Zm-.16-4.89a36,36,0,0,0,18.5-4.81,34.26,34.26,0,0,0,12.95-13.44,43.66,43.66,0,0,0,0-39.53,33.9,33.9,0,0,0-12.95-13.28,38.7,38.7,0,0,0-37.08,0,34.07,34.07,0,0,0-12.88,13.28,43.74,43.74,0,0,0,0,39.53,34.44,34.44,0,0,0,12.88,13.44A35.8,35.8,0,0,0,372.37,984.19Z" transform="translate(-328.31 -840.14)"/><path class="cls-1" d="M473.74,989.08a44.16,44.16,0,0,1-22.17-5.46,39.62,39.62,0,0,1-15.15-15.24,44.09,44.09,0,0,1-5.54-22.17A46.37,46.37,0,0,1,436,924.05a38.93,38.93,0,0,1,14.18-15.16,38.38,38.38,0,0,1,20.45-5.54,38.87,38.87,0,0,1,20.29,5.38,37.71,37.71,0,0,1,14.18,14.91,45.46,45.46,0,0,1,5.14,21.92V947H434.46v-4.4h72.86L506,944.24a.47.47,0,0,1-.83-.29,39.31,39.31,0,0,0-4.46-17.7,33.84,33.84,0,0,0-12.31-13.2,35.21,35.21,0,0,0-35.53,0,33.84,33.84,0,0,0-12.31,13.2,40,40,0,0,0-4.48,19.15v1A38.89,38.89,0,0,0,441,966a35.09,35.09,0,0,0,13.37,13.36,38.55,38.55,0,0,0,19.39,4.81,40.52,40.52,0,0,0,15.73-3.09,29.79,29.79,0,0,0,12.31-9.46l3.42,3.59a36.56,36.56,0,0,1-13.94,10.34A44.18,44.18,0,0,1,473.74,989.08Z" transform="translate(-328.31 -840.14)"/><path class="cls-1" d="M649,989.08a41.48,41.48,0,0,1-21.27-5.46,39.58,39.58,0,0,1-14.83-15.24,44.67,44.67,0,0,1-5.46-22.17,44.1,44.1,0,0,1,5.46-22.16,40.57,40.57,0,0,1,14.83-15.16A41,41,0,0,1,649,903.35a41.46,41.46,0,0,1,21.35,5.54,39.86,39.86,0,0,1,14.84,15.16,44.69,44.69,0,0,1,5.38,22.16,45.27,45.27,0,0,1-5.38,22.17,38.92,38.92,0,0,1-14.84,15.24A41.9,41.9,0,0,1,649,989.08Zm0-4.89a36.34,36.34,0,0,0,18.67-4.81,33.73,33.73,0,0,0,12.87-13.44,44.33,44.33,0,0,0,0-39.53,33.37,33.37,0,0,0-12.87-13.28A36.88,36.88,0,0,0,649,908.4a36,36,0,0,0-18.41,4.73,34.55,34.55,0,0,0-13,13.28,43,43,0,0,0,0,39.53,34.91,34.91,0,0,0,13,13.44A35.49,35.49,0,0,0,649,984.19Z" transform="translate(-328.31 -840.14)"/><path class="cls-1" d="M757,903.35a37.66,37.66,0,0,1,18,4.07,28.61,28.61,0,0,1,11.81,12q4.23,7.9,4.23,19.48v49.71H785.7V939.2q0-15.15-7.66-23t-21.52-7.82a37.21,37.21,0,0,0-18.25,4.24,28.63,28.63,0,0,0-11.74,12.06A39.08,39.08,0,0,0,722.46,943v45.63h-5.38V904h5.22v23.8l-.65-1.47a34.09,34.09,0,0,1,13-16.78Q743.65,903.34,757,903.35Z" transform="translate(-328.31 -840.14)"/><path class="cls-1" d="M858.06,989.08a41.14,41.14,0,0,1-21.1-5.46,39.71,39.71,0,0,1-14.83-15.16,44.45,44.45,0,0,1-5.46-22.25q0-12.71,5.46-22.24a40.49,40.49,0,0,1,35.93-20.62,39.66,39.66,0,0,1,20.54,5.38,38.76,38.76,0,0,1,14.43,15q5.28,9.63,5.3,22.49a46.63,46.63,0,0,1-5.3,22.5,37.91,37.91,0,0,1-14.43,15.07A40.09,40.09,0,0,1,858.06,989.08Zm.17-4.89a35.85,35.85,0,0,0,18.58-4.81,34.41,34.41,0,0,0,12.87-13.44,43.66,43.66,0,0,0,0-39.53,34,34,0,0,0-12.87-13.28,38.54,38.54,0,0,0-37,0,34.62,34.62,0,0,0-13,13.28,43.09,43.09,0,0,0,0,39.53,35,35,0,0,0,13,13.44A35.53,35.53,0,0,0,858.23,984.19Zm36.34,4.4v-35.8L896,937.25l-1.63-15.54V842.64h5.38v146Z" transform="translate(-328.31 -840.14)"/><path class="cls-2" d="M550.34,943s-1.37-8.72,15-24.78c13.69-13.45,13.35-16.54,13.35-16.54s2.39-9.69,10.22-24.95a79.66,79.66,0,0,0,3.89-8.17c-3.77-4.13.24-5.43,1.76-9.38,1.2-3.13,2.65-2,2.18.07a27.61,27.61,0,0,1,4.41-5c2-1.89,2.71-.84,2.47.54,1.12-.85,1.73-1.24,2.56-.43.55.55-.6,2.3-.6,2.3s1.18-1.06,1.77-.24-3.23,4.95-3.23,4.95,1.63-2.5,2.71-1.7-1.74,3.08-4.51,6.67c-2.58,3.35-2,3.72-5.45,4.72a34.59,34.59,0,0,0-2.49,8.44c-1.2,7.78-4.05,22.25-6.64,27.1-3.19,6-17.46,25.21-18,30.13-.54,4.71,1.63,21.82-8.34,16.9S550.34,943,550.34,943Z" transform="translate(-328.31 -840.14)"/><path class="cls-2" d="M551.24,927.16c4,.32,7,3.81,8.86,7.52,1.76,3.45,3.77,11.08,1.11,14.27s-9.87,3.38-13.55,2c-4.54-1.74-5.57-8.57-5.86-13.44a23,23,0,0,1,.83-7.19S544.61,926.61,551.24,927.16Z" transform="translate(-328.31 -840.14)"/><path class="cls-2" d="M541.36,919.89c-4.72-3.24-8.86-12.21,0-19.62s15.35-3.39,17.3-1c1.3,1.6,5.23,3.92,3.91,10.17,0,0,2,3.05,3.2,3.48s-.87,2.77-.87,2.77a3.08,3.08,0,0,0,0,3.19c1,1.45,1.16,4.07-5.37,5.09-1.6.25-3.35,1-3.78,5.81l-6.69-3.63,1.6-4.94S544.46,922,541.36,919.89Z" transform="translate(-328.31 -840.14)"/><path class="cls-2" d="M552.46,946.66s-7.7-2.85-13.52-23.74c-4.88-17.49-7.86-18.56-7.86-18.56-9.38-8-11.55-12.46-16.3-19.45a75.41,75.41,0,0,0-5.08-6.75c-4.38-.29-4.2-3.19-6.8-6.24-2.06-2.42-.48-3.14,1.08-1.79a25.5,25.5,0,0,1-2.16-6c-.65-2.53.56-2.64,1.6-1.81-.19-1.32-.23-2,.84-2.33.71-.21,1.64,1.53,1.64,1.53s-.34-1.46.63-1.58,2.63,4.93,2.63,4.93-1.32-2.49-.15-3,1.76,2.84,3.47,6.77c1.6,3.67,2.19,3.35,1.41,6.68a32.32,32.32,0,0,0,5.91,5.89c6,4.51,16.73,13.44,19.58,17.8,3.5,5.35,13,25.94,16.82,28.64,3.69,2.59,18,7.49,10.25,14.6C557,951,552.46,946.66,552.46,946.66Z" transform="translate(-328.31 -840.14)"/><path class="cls-2" d="M542.67,984.55s-10.07,2-10.65,14c0,0-16.23,4.93-24.65,11.47,0,0-2.91,2.33-11.05,1.6s-17.43-3.49-29.49,2.62-12.49,2.21-16.57.77c-2.17-.77-6.95,1.07-5.61,7.56s-3.49,8.13-2.91,12.78c.38,3.06,5.65,2.57,9.74,2.13,5.42-.58,2.85-2.52,2.85-2.52l-4.26-1.16a5.73,5.73,0,0,1,1.74-3.87c1.75-1.6,2.91-6.4,10.08-7.94,6.67-1.45,32.06,0,36.42.77s8.13,1.74,16.71-1.16,30-5.62,43.15-21.51C558.17,1000,545.87,983.68,542.67,984.55Z" transform="translate(-328.31 -840.14)"/><path class="cls-2" d="M556.33,1002.42s7,2.32,23-5.52c0,0,9.88-3,12.2-2.09,0,0-7,16.21-4.84,26.74,2.32,11.43-.72,12-2.13,13.8-1,1.31-.73,6.1,5.66,5.09,6.12-1,6.39.58,9.16,1.3s3.9-1,4.94-.72c3.34.72,3.92-3.83.72-2.47-1.26.53-7.41-3.2-11.33-3.78-2.75-.41.87-12.83,1.89-15.16S602,1004.4,601.37,996c-.45-6.53,1.6-12-2.47-13.61s-19-3.44-35.88,3.14C563,985.51,554.87,990.79,556.33,1002.42Z" transform="translate(-328.31 -840.14)"/><path class="cls-2" d="M542.38,929.43a54.16,54.16,0,0,0-1.82,12,15,15,0,0,0,1,5.91,40.19,40.19,0,0,0,2.74,5.14c4.76,7.9,6.89,26.3-3.95,33.28,1.35,1.77,3.35,6.89,4.76,8.6a25.5,25.5,0,0,0,4.89,4.62c1.79,1.27,12.79-2,14.36-4.7,1.75-3,1-6.37,2.53-12.59,1-4.07,3.17-9.2,3.29-12s-.26-6.29.19-9.11,1.91-5.79,2.52-8.42-.19-6.2-1.35-7.56c-1.66-1.93-4.42-2.49-5.82-4.55a44.32,44.32,0,0,0-9.93-10.19c3.6,5.09,8.19,12.24,2.79,18a9,9,0,0,1-10.43,1.85c-3.41-1.69-4.68-5.21-5.33-8.77S542.31,933.64,542.38,929.43Z" transform="translate(-328.31 -840.14)"/><path class="cls-2" d="M558.17,1000s-12.3-16.36-15.5-15.49c0,0-10.07,2-10.65,14,0,0-16.23,4.93-24.65,11.47,0,0-2.91,2.33-11.05,1.6-3-.27-6.24-.83-9.68-1.1a33.19,33.19,0,0,1,1.29,4.21,28.88,28.88,0,0,1,1,7.22c4.42.26,8,.58,9.4.81,4.36.73,8.13,1.74,16.71-1.16S545,1015.93,558.17,1000Z" transform="translate(-328.31 -840.14)"/><path class="cls-2" d="M595.54,1003.63c1.42.23,3.14.82,4.89,1.29a32.12,32.12,0,0,0,.94-8.94c-.45-6.53,1.6-12-2.47-13.61s-19-3.44-35.88,3.14c0,0-8.15,5.28-6.69,16.91,0,0,7,2.32,23-5.52,0,0,9.88-3,12.2-2.09a79.8,79.8,0,0,0-3.2,9.33A15.79,15.79,0,0,1,595.54,1003.63Z" transform="translate(-328.31 -840.14)"/><path class="cls-3" d="M642.27,1036.55v-20.79h8a11.85,11.85,0,0,1,5.79,1.35,10,10,0,0,1,3.85,3.68,11.1,11.1,0,0,1,0,10.72,10,10,0,0,1-3.85,3.69,11.85,11.85,0,0,1-5.79,1.35Zm1-.92h7a11.13,11.13,0,0,0,5.33-1.22,8.65,8.65,0,0,0,3.5-3.36,10.3,10.3,0,0,0,0-9.8,8.7,8.7,0,0,0-3.5-3.35,11,11,0,0,0-5.33-1.22h-7Z" transform="translate(-328.31 -840.14)"/><path class="cls-3" d="M665.88,1036.55l9.62-20.79h1l9.63,20.79H685l-9.24-20.11h.45L667,1036.55Zm3.33-6.09.38-.86H682.3l.39.86Z" transform="translate(-328.31 -840.14)"/><path class="cls-3" d="M693.11,1036.55v-20.79H694l15.26,19.6h-.5v-19.6h1v20.79h-.83l-15.27-19.61h.5v19.61Z" transform="translate(-328.31 -840.14)"/><path class="cls-3" d="M728.9,1036.67a11.34,11.34,0,0,1-4.24-.79,10.39,10.39,0,0,1-3.42-2.21,10.16,10.16,0,0,1-2.26-3.35,11.27,11.27,0,0,1,0-8.34,10.12,10.12,0,0,1,2.26-3.34,10.23,10.23,0,0,1,3.42-2.21,11.15,11.15,0,0,1,4.24-.79,11.59,11.59,0,0,1,4,.68,8.64,8.64,0,0,1,3.24,2.08l-.62.65a8.35,8.35,0,0,0-3-1.91,10.44,10.44,0,0,0-3.52-.58,10,10,0,0,0-3.86.73,9.32,9.32,0,0,0-3.1,2,9.21,9.21,0,0,0-2.05,3,10.18,10.18,0,0,0,0,7.57,9.17,9.17,0,0,0,2.05,3,9.5,9.5,0,0,0,3.1,2,10.24,10.24,0,0,0,3.86.73,10.69,10.69,0,0,0,3.52-.58,8.34,8.34,0,0,0,3-2l.62.65a8.81,8.81,0,0,1-3.24,2.1A11.37,11.37,0,0,1,728.9,1036.67Z" transform="translate(-328.31 -840.14)"/><path class="cls-3" d="M745.45,1035.63h13v.92h-14v-20.79h13.63v.92H745.45Zm-.18-10.1h11.46v.92H745.27Z" transform="translate(-328.31 -840.14)"/><path class="cls-3" d="M783,1036.67a11.53,11.53,0,0,1-4.32-.82,7.86,7.86,0,0,1-3.11-2.06l.54-.72A8,8,0,0,0,779,1035a10.14,10.14,0,0,0,4,.78,9.06,9.06,0,0,0,3.56-.59,4.56,4.56,0,0,0,2.07-1.59,3.91,3.91,0,0,0,.67-2.21,3.47,3.47,0,0,0-.72-2.29,4.84,4.84,0,0,0-1.88-1.36,15.37,15.37,0,0,0-2.56-.84c-.92-.21-1.85-.45-2.79-.69a14.23,14.23,0,0,1-2.58-1,4.73,4.73,0,0,1-1.87-1.61,4.59,4.59,0,0,1-.7-2.66,5,5,0,0,1,.74-2.61,5.31,5.31,0,0,1,2.32-2,9.24,9.24,0,0,1,4-.76,10.93,10.93,0,0,1,3.34.52,9,9,0,0,1,2.8,1.38l-.44.8a8.91,8.91,0,0,0-2.76-1.37,10.55,10.55,0,0,0-2.91-.44,8.51,8.51,0,0,0-3.46.61,4.45,4.45,0,0,0-2,1.62,4,4,0,0,0-.65,2.22,3.55,3.55,0,0,0,.71,2.32,5,5,0,0,0,1.89,1.37,16.14,16.14,0,0,0,2.57.83c.93.22,1.86.45,2.79.7a13,13,0,0,1,2.57,1,5.11,5.11,0,0,1,1.87,1.59,4.47,4.47,0,0,1,.7,2.6,4.89,4.89,0,0,1-.76,2.61,5.3,5.3,0,0,1-2.38,2A9.8,9.8,0,0,1,783,1036.67Z" transform="translate(-328.31 -840.14)"/><path class="cls-3" d="M802.29,1036.55v-19.87h-7.63v-.92h16.25v.92h-7.64v19.87Z" transform="translate(-328.31 -840.14)"/><path class="cls-3" d="M825.34,1036.67a8,8,0,0,1-6-2.23c-1.46-1.49-2.19-3.7-2.19-6.65v-12h1v12c0,2.69.63,4.69,1.87,6a8.06,8.06,0,0,0,10.58,0q1.88-2,1.87-6v-12h1v12c0,3-.73,5.16-2.18,6.65A8,8,0,0,1,825.34,1036.67Z" transform="translate(-328.31 -840.14)"/><path class="cls-3" d="M843.87,1036.55v-20.79h8a11.85,11.85,0,0,1,5.79,1.35,9.89,9.89,0,0,1,3.85,3.68,11.1,11.1,0,0,1,0,10.72,9.84,9.84,0,0,1-3.85,3.69,11.85,11.85,0,0,1-5.79,1.35Zm1-.92h7a11.13,11.13,0,0,0,5.33-1.22,8.62,8.62,0,0,0,3.51-3.36,10.38,10.38,0,0,0,0-9.8,8.66,8.66,0,0,0-3.51-3.35,11,11,0,0,0-5.33-1.22h-7Z" transform="translate(-328.31 -840.14)"/><path class="cls-3" d="M871.38,1036.55v-20.79h1v20.79Z" transform="translate(-328.31 -840.14)"/><path class="cls-3" d="M891.57,1036.67a11.34,11.34,0,0,1-4.24-.79,10.39,10.39,0,0,1-3.42-2.21,10.16,10.16,0,0,1-2.26-3.35,11.27,11.27,0,0,1,0-8.34,10.12,10.12,0,0,1,2.26-3.34,10.23,10.23,0,0,1,3.42-2.21,11.15,11.15,0,0,1,4.24-.79,11.28,11.28,0,0,1,4.28.79,10,10,0,0,1,3.4,2.21,10.43,10.43,0,0,1,2.26,3.34,11,11,0,0,1,0,8.34,10.48,10.48,0,0,1-2.26,3.35,10.2,10.2,0,0,1-3.4,2.21A11.48,11.48,0,0,1,891.57,1036.67Zm0-.92a10.25,10.25,0,0,0,3.87-.72,9.27,9.27,0,0,0,5.15-5.06,10.33,10.33,0,0,0,0-7.63,9.25,9.25,0,0,0-5.15-5.07,10.79,10.79,0,0,0-7.7,0,9.25,9.25,0,0,0-5.15,5.07,10.33,10.33,0,0,0,0,7.63,9.27,9.27,0,0,0,5.15,5.06A10.15,10.15,0,0,0,891.57,1035.75Z" transform="translate(-328.31 -840.14)"/></svg>